<?xml version="1.0" encoding="UTF-8"?>
<svg version="1.1" xmlns="http://www.w3.org/2000/svg" width="180" height="180">
<path d="M0 0 C3.49961901 2.84374635 6.76721883 5.85892893 10 9 C10.62390625 9.56203125 11.2478125 10.1240625 11.890625 10.703125 C27.02252012 24.74443309 34.91982359 46.4050997 35.9375 66.6875 C36.79090461 92.59975535 28.30836551 113.95563428 11.10546875 133.109375 C-4.16709427 149.15956343 -25.84925125 159.36567652 -48.05859375 160.203125 C-69.41983771 160.59005116 -87.47529263 155.5448604 -105 143 C-105.85078125 142.39542969 -106.7015625 141.79085937 -107.578125 141.16796875 C-124.58631008 128.35965759 -136.31985987 107.88870386 -140 87 C-140.34940194 82.49636455 -140.43406337 78.02564471 -140.39111328 73.50927734 C-140.37501274 71.50158804 -140.39106395 69.49591052 -140.41015625 67.48828125 C-140.3767322 56.20209264 -138.42656288 46.2059245 -133.75 35.9375 C-133.44118896 35.256875 -133.13237793 34.57625 -132.81420898 33.875 C-123.14763719 13.04030083 -106.78961033 -1.98028841 -85.6875 -10.8125 C-56.06445808 -21.25489421 -26.0740705 -18.45394825 0 0 Z " fill="#74D2D3" transform="translate(142,20)"/>
<path d="M0 0 C8.10192589 6.10114541 13.28984392 13.05721518 18 22 C18.45632812 22.8146875 18.91265625 23.629375 19.3828125 24.46875 C24.5597878 35.61915835 23.67183546 51.82770112 20.25 63.4375 C19.54235108 65.3082397 18.7975971 67.16580457 18 69 C17.72285156 69.72703125 17.44570312 70.4540625 17.16015625 71.203125 C14.48271521 77.47105149 9.72219472 82.19694578 5 87 C4.14921875 87.87011719 4.14921875 87.87011719 3.28125 88.7578125 C-6.46932823 97.88703036 -18.79047171 101.35688319 -31.8125 101.3125 C-33.21338867 101.33666992 -33.21338867 101.33666992 -34.64257812 101.36132812 C-48.60532805 101.37101775 -60.8093284 95.72273917 -70.9375 86.19140625 C-83.24794869 73.11155451 -87.78742068 57.88289898 -87.30859375 40.25 C-86.51082597 25.47308979 -78.68154106 12.56121883 -68.1640625 2.55078125 C-48.66410237 -13.98613311 -20.65527602 -14.76322613 0 0 Z " fill="#F9FAFA" transform="translate(122,46)"/>
<path d="M0 0 C3.49961901 2.84374635 6.76721883 5.85892893 10 9 C10.62390625 9.56203125 11.2478125 10.1240625 11.890625 10.703125 C27.02252012 24.74443309 34.91982359 46.4050997 35.9375 66.6875 C36.79090461 92.59975535 28.30836551 113.95563428 11.10546875 133.109375 C-4.16709427 149.15956343 -25.84925125 159.36567652 -48.05859375 160.203125 C-69.41983771 160.59005116 -87.47529263 155.5448604 -105 143 C-105.85078125 142.39542969 -106.7015625 141.79085937 -107.578125 141.16796875 C-124.58631008 128.35965759 -136.31985987 107.88870386 -140 87 C-140.34940194 82.49636455 -140.43406337 78.02564471 -140.39111328 73.50927734 C-140.37501274 71.50158804 -140.39106395 69.49591052 -140.41015625 67.48828125 C-140.3767322 56.20209264 -138.42656288 46.2059245 -133.75 35.9375 C-133.44118896 35.256875 -133.13237793 34.57625 -132.81420898 33.875 C-123.14763719 13.04030083 -106.78961033 -1.98028841 -85.6875 -10.8125 C-56.06445808 -21.25489421 -26.0740705 -18.45394825 0 0 Z M-113.4296875 17.984375 C-129.28594915 36.58777013 -134.57934139 57.98145337 -133 82 C-131.2988044 97.2801082 -124.67707098 111.1939734 -115 123 C-114.45859375 123.70382813 -113.9171875 124.40765625 -113.359375 125.1328125 C-102.25724274 138.87574321 -82.59715998 149.91789328 -65 152 C-39.76362138 153.67018306 -17.54139537 148.95027113 2 132 C17.72770233 117.91856184 26.57094076 98.79737385 29 78 C30.04323463 55.77667631 23.83103572 34.39746976 8.75 17.6875 C-6.8225742 1.2073135 -27.4425081 -8.63033278 -50.14282227 -9.28808594 C-74.84645593 -9.56606089 -96.38281499 0.19201244 -113.4296875 17.984375 Z " fill="#79D3D4" transform="translate(142,20)"/>
<path d="M0 0 C4.74240166 0.43195872 8.26755094 1.92205759 12.45703125 4.125 C13.0454631 4.43195801 13.63389496 4.73891602 14.24015808 5.05517578 C16.10179689 6.02902987 17.9569981 7.01451322 19.8125 8 C21.07709473 8.66218307 22.34206544 9.32364862 23.60742188 9.984375 C32.81343913 14.81343913 32.81343913 14.81343913 34 16 C34.08868299 18.95705321 34.11520296 21.89065056 34.09765625 24.84765625 C34.0962413 25.7340831 34.09482635 26.62050995 34.09336853 27.53379822 C34.08775215 30.37673254 34.07519691 33.21958931 34.0625 36.0625 C34.05748711 37.98502491 34.05292384 39.90755104 34.04882812 41.83007812 C34.03777741 46.55341549 34.02050183 51.27669458 34 56 C30.33637915 57.8564979 26.6701704 59.70776879 23.00146484 61.55419922 C21.75334278 62.18329431 20.50594195 62.81382241 19.25927734 63.44580078 C17.46901889 64.35303597 15.67595372 65.25472596 13.8828125 66.15625 C12.80402832 66.70087891 11.72524414 67.24550781 10.61376953 67.80664062 C8 69 8 69 6 69 C6 70.32 6 71.64 6 73 C6 76.66666667 6 80.33333333 6 84 C5.01 84 4.02 84 3 84 C2.49689942 82.2092015 1.99761372 80.41733089 1.5 78.625 C1.2215625 77.62726563 0.943125 76.62953125 0.65625 75.6015625 C0 73 0 73 0 71 C-0.80743652 70.58637207 -1.61487305 70.17274414 -2.44677734 69.74658203 C-5.44136509 68.21024333 -8.43415132 66.67050307 -11.42578125 65.12841797 C-12.72097338 64.46167954 -14.0168686 63.79630507 -15.31347656 63.13232422 C-17.17699699 62.17773374 -19.03793442 61.21826773 -20.8984375 60.2578125 C-22.01911621 59.6817627 -23.13979492 59.10571289 -24.29443359 58.51220703 C-27 57 -27 57 -29 55 C-29.27366126 52.11825256 -29.42497722 49.33706236 -29.4765625 46.44921875 C-29.49270599 45.59826126 -29.50884949 44.74730377 -29.52548218 43.87055969 C-29.55316493 42.0675166 -29.57460889 40.26436868 -29.59033203 38.46118164 C-29.62475479 35.70711831 -29.71248287 32.95786642 -29.80078125 30.20507812 C-29.82103695 28.45316032 -29.83806862 26.70120168 -29.8515625 24.94921875 C-29.88657867 24.12822189 -29.92159485 23.30722504 -29.95767212 22.46134949 C-29.93954685 20.06377592 -29.82499453 18.25424744 -29 16 C-26.60491946 13.72890285 -23.9753543 12.38495398 -21 11 C-19.64950562 10.27248535 -19.64950562 10.27248535 -18.27172852 9.53027344 C-17.48209717 9.14387695 -16.69246582 8.75748047 -15.87890625 8.359375 C-15.00685547 7.92882813 -14.13480469 7.49828125 -13.23632812 7.0546875 C-12.35396484 6.62414063 -11.47160156 6.19359375 -10.5625 5.75 C-8.77128234 4.87152897 -6.98087094 3.99141137 -5.19140625 3.109375 C-4.40967041 2.72749023 -3.62793457 2.34560547 -2.82250977 1.95214844 C-1.03342023 1.13318776 -1.03342023 1.13318776 0 0 Z " fill="#507C7C" transform="translate(87,49)"/>
<path d="M0 0 C2.18551961 1.94226177 3.72609665 3.4511558 5.03125 6.06640625 C6.18232163 8.3639081 7.47031353 9.38513387 9.5 10.9375 C12.54277478 13.41563616 13.659497 15.28783783 15 19 C15.61875 19.28875 16.2375 19.5775 16.875 19.875 C20.19894293 21.63473449 21.45672308 24.65996106 23 28 C23.34976758 29.32911682 23.69096017 30.66082739 24 32 C24.66 32.33 25.32 32.66 26 33 C27.1875 35.375 27.1875 35.375 28 38 C27.67 38.99 27.34 39.98 27 41 C26.01 40.01 25.02 39.02 24 38 C24 39.65 24 41.3 24 43 C22.18371795 40.27557692 20.66521057 37.49483806 19.13354492 34.60571289 C8.78840751 15.388222 -7.18255241 2.61775672 -27.625 -4.8125 C-49.38160292 -11.26775581 -72.07784197 -8.70329713 -92 2 C-110.95828419 12.91894692 -123.55476176 29.38564635 -129.96484375 50.12109375 C-135.31393466 71.04910381 -132.2999939 93.11503038 -122 112 C-119.59794426 115.86560917 -116.87557558 119.47461903 -114 123 C-114.33 123.66 -114.66 124.32 -115 125 C-117.5625 125.625 -117.5625 125.625 -120 126 C-124 119.375 -124 119.375 -124 116 C-124.639375 115.7525 -125.27875 115.505 -125.9375 115.25 C-128 114 -128 114 -128.75 111.875 C-128.8325 111.25625 -128.915 110.6375 -129 110 C-129.66 110 -130.32 110 -131 110 C-131.99401229 106.71263668 -132.96736005 103.41947984 -133.9375 100.125 C-134.21529297 99.2071875 -134.49308594 98.289375 -134.77929688 97.34375 C-139.26944431 81.97987204 -140.04875504 63.55703453 -136 48 C-135.73574219 46.97648437 -135.47148437 45.95296875 -135.19921875 44.8984375 C-134.49364696 42.2567232 -133.76187603 39.62593272 -133 37 C-132.34 37 -131.68 37 -131 37 C-130.690625 36.05125 -130.38125 35.1025 -130.0625 34.125 C-129 31 -129 31 -128 29 C-127.34 29 -126.68 29 -126 29 C-125.85884766 27.90751953 -125.85884766 27.90751953 -125.71484375 26.79296875 C-123.59586269 18.51388974 -114.91939533 11.77075797 -108.90625 6.12890625 C-106.66646274 4.10377563 -106.66646274 4.10377563 -107 1 C-104.79388833 -0.62941028 -102.67620273 -2.00955313 -100.3125 -3.375 C-99.62841064 -3.77420654 -98.94432129 -4.17341309 -98.23950195 -4.5847168 C-66.77715729 -22.5126747 -29.64819488 -20.97474265 0 0 Z " fill="#77D3D3" transform="translate(142,20)"/>
<path d="M0 0 C10.20992308 8.62025609 18.78109581 22.27383662 19.97119141 35.83251953 C20.8050309 55.98304919 17.18934088 71.43808977 3.328125 86.7890625 C1.75 88.3125 1.75 88.3125 -1.25 90.3125 C-2.8762091 92.6705032 -3.28364276 93.87514415 -3.0625 96.75 C-2.163777 99.58443408 -0.81468841 101.79539256 0.75 104.3125 C0.75 104.9725 0.75 105.6325 0.75 106.3125 C-7.21479921 110.35563337 -7.21479921 110.35563337 -11.25 110.1875 C-13.25 109.3125 -13.25 109.3125 -14.25 107.3125 C-14.25 108.9625 -14.25 110.6125 -14.25 112.3125 C-14.91 112.3125 -15.57 112.3125 -16.25 112.3125 C-16.25 109.0125 -16.25 105.7125 -16.25 102.3125 C-17.9 102.6425 -19.55 102.9725 -21.25 103.3125 C-21.25 102.6525 -21.25 101.9925 -21.25 101.3125 C-22.9 101.6425 -24.55 101.9725 -26.25 102.3125 C-23.61 103.3025 -20.97 104.2925 -18.25 105.3125 C-18.58 106.9625 -18.91 108.6125 -19.25 110.3125 C-19.91 110.3125 -20.57 110.3125 -21.25 110.3125 C-21.745 112.2925 -21.745 112.2925 -22.25 114.3125 C-23.24 114.3125 -24.23 114.3125 -25.25 114.3125 C-25.75615298 113.04410474 -26.25469099 111.77266898 -26.75 110.5 C-27.0284375 109.79230469 -27.306875 109.08460938 -27.59375 108.35546875 C-28.25 106.3125 -28.25 106.3125 -28.25 103.3125 C-29.57 103.6425 -30.89 103.9725 -32.25 104.3125 C-31.59 104.6425 -30.93 104.9725 -30.25 105.3125 C-30.745 106.7975 -30.745 106.7975 -31.25 108.3125 C-31.91 108.3125 -32.57 108.3125 -33.25 108.3125 C-31.765 109.3025 -31.765 109.3025 -30.25 110.3125 C-30.58 111.9625 -30.91 113.6125 -31.25 115.3125 C-34.88 115.3125 -38.51 115.3125 -42.25 115.3125 C-42.25 114.3225 -42.25 113.3325 -42.25 112.3125 C-42.91 112.3125 -43.57 112.3125 -44.25 112.3125 C-44.25 113.3025 -44.25 114.2925 -44.25 115.3125 C-45.24 115.3125 -46.23 115.3125 -47.25 115.3125 C-47.25 113.6625 -47.25 112.0125 -47.25 110.3125 C-47.91 111.6325 -48.57 112.9525 -49.25 114.3125 C-50.9 113.9825 -52.55 113.6525 -54.25 113.3125 C-53.59 111.0025 -52.93 108.6925 -52.25 106.3125 C-53.24 106.6425 -54.23 106.9725 -55.25 107.3125 C-55.58 108.9625 -55.91 110.6125 -56.25 112.3125 C-57.9 111.9825 -59.55 111.6525 -61.25 111.3125 C-60.87875 110.219375 -60.5075 109.12625 -60.125 108 C-59.691875 106.1746875 -59.691875 106.1746875 -59.25 104.3125 C-59.91 103.3225 -60.57 102.3325 -61.25 101.3125 C-55.85204011 102.46308556 -50.54012667 103.73671759 -45.25 105.3125 C-45.25 105.9725 -45.25 106.6325 -45.25 107.3125 C-44.59 107.3125 -43.93 107.3125 -43.25 107.3125 C-43.25 105.9925 -43.25 104.6725 -43.25 103.3125 C-44.83941406 102.78849609 -44.83941406 102.78849609 -46.4609375 102.25390625 C-47.84898459 101.79435012 -49.23700399 101.33471036 -50.625 100.875 C-51.32367188 100.64490234 -52.02234375 100.41480469 -52.7421875 100.17773438 C-58.0234375 98.42578125 -58.0234375 98.42578125 -60.25 97.3125 C-60.25 97.9725 -60.25 98.6325 -60.25 99.3125 C-60.91 99.9725 -61.57 100.6325 -62.25 101.3125 C-62.27375926 103.3056567 -62.27375926 103.3056567 -61.875 105.4375 C-61.66875 106.71625 -61.4625 107.995 -61.25 109.3125 C-64.25 108.3125 -64.25 108.3125 -65.9375 105.25 C-66.370625 104.280625 -66.80375 103.31125 -67.25 102.3125 C-67.91 102.3125 -68.57 102.3125 -69.25 102.3125 C-69.25 103.9625 -69.25 105.6125 -69.25 107.3125 C-72.65596465 106.67485365 -75.01013121 105.3633817 -77.875 103.4375 C-79.03902344 102.66792969 -79.03902344 102.66792969 -80.2265625 101.8828125 C-82.25 100.3125 -82.25 100.3125 -84.25 97.3125 C-82.6 95.3325 -80.95 93.3525 -79.25 91.3125 C-81.1754644 90.1634288 -81.1754644 90.1634288 -83.25 90.3125 C-83.91 91.6325 -84.57 92.9525 -85.25 94.3125 C-86.24 94.3125 -87.23 94.3125 -88.25 94.3125 C-88.085 93.52875 -87.92 92.745 -87.75 91.9375 C-87.1876293 89.43041961 -87.1876293 89.43041961 -87.25 87.3125 C-87.86875 87.8075 -88.4875 88.3025 -89.125 88.8125 C-91.25 90.3125 -91.25 90.3125 -93.25 90.3125 C-93.58 88.9925 -93.91 87.6725 -94.25 86.3125 C-94.91 86.3125 -95.57 86.3125 -96.25 86.3125 C-95.92 84.0025 -95.59 81.6925 -95.25 79.3125 C-97.23 80.3025 -97.23 80.3025 -99.25 81.3125 C-99.58 80.6525 -99.91 79.9925 -100.25 79.3125 C-98.5484375 78.631875 -98.5484375 78.631875 -96.8125 77.9375 C-93.20278308 76.74154194 -93.20278308 76.74154194 -92.25 74.3125 C-93.61125 75.0859375 -93.61125 75.0859375 -95 75.875 C-98.25 77.3125 -98.25 77.3125 -100.625 77 C-101.16125 76.773125 -101.6975 76.54625 -102.25 76.3125 C-102.25 75.9825 -102.25 75.6525 -102.25 75.3125 C-98.785 74.8175 -98.785 74.8175 -95.25 74.3125 C-95.25 73.6525 -95.25 72.9925 -95.25 72.3125 C-99.21 73.3025 -99.21 73.3025 -103.25 74.3125 C-102.92 72.9925 -102.59 71.6725 -102.25 70.3125 C-98.6875 68.5625 -98.6875 68.5625 -95.25 67.3125 C-93.93 68.3025 -92.61 69.2925 -91.25 70.3125 C-90.755 69.8175 -90.755 69.8175 -90.25 69.3125 C-90.61242032 66.05071713 -91.14465947 62.85915348 -91.765625 59.63671875 C-94.74634479 43.56212273 -93.58558202 28.28558551 -85.06640625 13.9375 C-75.70488587 0.40859312 -63.08459532 -8.54918043 -46.9375 -11.9375 C-29.38751 -14.68510069 -14.23785658 -10.64023585 0 0 Z M-77.80859375 7.2578125 C-88.7216956 20.91228553 -92.59784319 35.00899625 -91.25 52.3125 C-89.51767537 66.38958845 -82.75609705 78.81017018 -72.25 88.3125 C-57.48007951 99.41128418 -43.3812659 101.80566307 -25.25 100.3125 C-11.96144589 98.03720198 -0.80432939 89.36044246 7.75 79.3125 C17.5774412 65.27329829 19.2950615 48.94965396 17.75 32.3125 C15.11140252 18.86425397 5.83765838 6.13325904 -5.25 -1.6875 C-15.13314941 -7.37031091 -24.1313752 -11.04766254 -35.625 -10.9375 C-36.42421875 -10.94523437 -37.2234375 -10.95296875 -38.046875 -10.9609375 C-53.75691366 -10.91009595 -67.15704788 -4.20331436 -77.80859375 7.2578125 Z " fill="#4D7876" transform="translate(126.25,46.6875)"/>
<path d="M0 0 C2.04634484 1.00101517 4.02150514 2.08222082 6.00195312 3.20751953 C6.68580078 3.58457031 7.36964844 3.96162109 8.07421875 4.35009766 C9.74303109 5.27202895 11.40453177 6.20717465 13.06445312 7.14501953 C10.06445312 8.14501953 10.06445312 8.14501953 8.25512695 7.52416992 C7.6005249 7.18377686 6.94592285 6.84338379 6.27148438 6.49267578 C5.30819214 6.00166382 5.30819214 6.00166382 4.32543945 5.50073242 C3.51743896 5.07397217 2.70943848 4.64721191 1.87695312 4.20751953 C-0.70117188 2.86689453 -3.27929688 1.52626953 -5.93554688 0.14501953 C-5.93554688 7.40501953 -5.93554688 14.66501953 -5.93554688 22.14501953 C-4.61554688 22.47501953 -3.29554687 22.80501953 -1.93554688 23.14501953 C-1.93554688 21.49501953 -1.93554688 19.84501953 -1.93554688 18.14501953 C1.71257786 15.8102197 4.80633101 15.76483006 9.06445312 16.14501953 C11.25878906 17.30444336 11.25878906 17.30444336 13.06445312 19.14501953 C13.51855469 21.78051758 13.51855469 21.78051758 13.45507812 24.90673828 C13.4421875 26.025 13.42929688 27.14326172 13.41601562 28.29541016 C13.3825 29.46265625 13.34898438 30.62990234 13.31445312 31.83251953 C13.29640625 33.01136719 13.27835938 34.19021484 13.25976562 35.40478516 C13.21257172 38.31900879 13.14674389 41.23160984 13.06445312 44.14501953 C17.51945312 46.12501953 17.51945312 46.12501953 22.06445312 48.14501953 C19.12616716 50.64800387 16.88542551 51.61432892 13.06445312 52.14501953 C13.06445312 53.13501953 13.06445312 54.12501953 13.06445312 55.14501953 C10.17291122 58.66941469 6.23526045 60.40989011 2.25195312 62.45751953 C1.55263672 62.84230469 0.85332031 63.22708984 0.1328125 63.62353516 C-3.47819601 65.47801941 -5.15082974 66.30382028 -9.23632812 65.47705078 C-10.12707031 65.03748047 -11.0178125 64.59791016 -11.93554688 64.14501953 C-13.04929687 63.60876953 -14.16304687 63.07251953 -15.31054688 62.52001953 C-16.17679688 62.06626953 -17.04304688 61.61251953 -17.93554688 61.14501953 C-17.93554688 60.48501953 -17.93554688 59.82501953 -17.93554688 59.14501953 C-18.92554687 58.81501953 -19.91554688 58.48501953 -20.93554688 58.14501953 C-20.27554688 58.14501953 -19.61554688 58.14501953 -18.93554688 58.14501953 C-18.93554688 48.57501953 -18.93554688 39.00501953 -18.93554688 29.14501953 C-14.93554688 30.47835286 -10.93554688 31.8116862 -6.93554688 33.14501953 C-7.85535113 30.05796091 -8.43973472 28.48636861 -11.13452148 26.63110352 C-12.0266333 26.22190674 -12.91874512 25.81270996 -13.83789062 25.39111328 C-14.81048828 24.92898437 -15.78308594 24.46685547 -16.78515625 23.99072266 C-18.31366211 23.29366211 -18.31366211 23.29366211 -19.87304688 22.58251953 C-21.88652905 21.65312173 -23.89585484 20.71465272 -25.90039062 19.76611328 C-26.79363037 19.35804443 -27.68687012 18.94997559 -28.60717773 18.52954102 C-31.16881313 17.00631208 -32.49142908 15.74782285 -33.93554688 13.14501953 C-32.39655808 8.52805316 -28.84569679 7.70957272 -24.65820312 5.56689453 C-23.55347656 5.01517578 -22.44875 4.46345703 -21.31054688 3.89501953 C-20.22902344 3.32783203 -19.1475 2.76064453 -18.03320312 2.17626953 C-11.41020925 -1.15544412 -7.13424786 -3.15137942 0 0 Z " fill="#71C8CA" transform="translate(95.935546875,52.85498046875)"/>
<path d="M0 0 C15.58148959 13.53695712 25.42060044 32.14565915 27.953125 52.58203125 C29.31145677 75.33408848 23.11011388 97.01514957 7.92456055 114.40527344 C-5.71127115 129.42335458 -23.95906994 140.60141912 -44.60473633 141.72070312 C-67.8846682 142.53481234 -88.09797883 138.20768825 -106.046875 122.58203125 C-106.92666016 121.91494141 -106.92666016 121.91494141 -107.82421875 121.234375 C-120.76272782 111.17109017 -129.94803208 93.51162047 -133.046875 77.58203125 C-133.22863281 76.69773437 -133.41039062 75.8134375 -133.59765625 74.90234375 C-136.5801324 52.85795484 -132.27400112 31.66972781 -119.046875 13.58203125 C-116.20522848 10.07941566 -113.2085715 6.79740681 -110.046875 3.58203125 C-109.35980469 2.88207031 -108.67273438 2.18210937 -107.96484375 1.4609375 C-77.60604472 -27.43342967 -31.50884114 -25.00509316 0 0 Z M-107.046875 2.58203125 C-107.82804687 3.28199219 -108.60921875 3.98195313 -109.4140625 4.703125 C-123.83376332 18.32173133 -132.10347092 37.76182681 -133.20703125 57.4375 C-133.80770812 78.87905275 -126.19742657 99.51681732 -112.046875 115.58203125 C-111.386875 115.58203125 -110.726875 115.58203125 -110.046875 115.58203125 C-109.716875 116.57203125 -109.386875 117.56203125 -109.046875 118.58203125 C-90.4660607 135.53294956 -69.484604 140.79299053 -44.91772461 139.80126953 C-25.1014396 138.28795854 -7.7419541 128.8168179 5.953125 114.58203125 C22.08844255 95.72698433 27.6340006 74.9283263 25.953125 50.58203125 C23.67343519 31.21283883 12.61902372 12.44026561 -2.234375 0.01953125 C-9.36510138 -5.94744765 -9.36510138 -5.94744765 -17.984375 -8.66796875 C-18.665 -8.58546875 -19.345625 -8.50296875 -20.046875 -8.41796875 C-20.376875 -6.76796875 -20.706875 -5.11796875 -21.046875 -3.41796875 C-20.056875 -3.08796875 -19.066875 -2.75796875 -18.046875 -2.41796875 C-17.056875 -0.93296875 -17.056875 -0.93296875 -16.046875 0.58203125 C-15.386875 0.25203125 -14.726875 -0.07796875 -14.046875 -0.41796875 C-14.046875 0.24203125 -14.046875 0.90203125 -14.046875 1.58203125 C-14.706875 1.58203125 -15.366875 1.58203125 -16.046875 1.58203125 C-16.376875 2.90203125 -16.706875 4.22203125 -17.046875 5.58203125 C-17.73652344 5.18371094 -18.42617187 4.78539063 -19.13671875 4.375 C-28.87598611 -1.11586267 -36.86279245 -3.81172876 -48.046875 -4.41796875 C-48.541875 -7.88296875 -48.541875 -7.88296875 -49.046875 -11.41796875 C-51.41667513 -8.46419377 -51.41667513 -8.46419377 -51.046875 -4.41796875 C-55.26565692 -4.22174634 -58.21698394 -4.61566707 -62.046875 -6.41796875 C-62.046875 -5.75796875 -62.046875 -5.09796875 -62.046875 -4.41796875 C-63.9959375 -4.29421875 -63.9959375 -4.29421875 -65.984375 -4.16796875 C-70.51593649 -3.6883248 -74.05358226 -2.29631151 -78.1015625 -0.2578125 C-80.046875 0.58203125 -80.046875 0.58203125 -83.046875 0.58203125 C-83.046875 1.57203125 -83.046875 2.56203125 -83.046875 3.58203125 C-84.366875 3.91203125 -85.686875 4.24203125 -87.046875 4.58203125 C-87.706875 2.27203125 -88.366875 -0.03796875 -89.046875 -2.41796875 C-88.056875 -2.08796875 -87.066875 -1.75796875 -86.046875 -1.41796875 C-85.716875 -2.73796875 -85.386875 -4.05796875 -85.046875 -5.41796875 C-83.396875 -5.41796875 -81.746875 -5.41796875 -80.046875 -5.41796875 C-79.056875 -7.72796875 -78.066875 -10.03796875 -77.046875 -12.41796875 C-88.23658299 -13.23176569 -99.14506918 -4.58316555 -107.046875 2.58203125 Z " fill="#74CCCC" transform="translate(143.046875,30.41796875)"/>
<path d="M0 0 C-1.58481101 3.9528135 -4.18771498 6.28836951 -7.25 9.1875 C-12.61091356 14.38192556 -17.59840977 19.79522932 -20 27 C-20.66 27 -21.32 27 -22 27 C-22.309375 27.94875 -22.61875 28.8975 -22.9375 29.875 C-24 33 -24 33 -25 35 C-25.66 35 -26.32 35 -27 35 C-27.07347656 35.88751953 -27.07347656 35.88751953 -27.1484375 36.79296875 C-27.57202633 41.26986448 -28.28852009 44.82826772 -30 49 C-31.4589038 58.2979432 -31.17443924 67.61516898 -31 77 C-30.98324219 77.96550781 -30.96648438 78.93101563 -30.94921875 79.92578125 C-30.56860334 86.22224755 -28.62385572 92.13228645 -26.7277832 98.11401367 C-25.62861714 101.60961039 -25 104.29804535 -25 108 C-24.34 108 -23.68 108 -23 108 C-21.98133771 109.65532623 -20.98189187 111.32260138 -20 113 C-19.34 113.33 -18.68 113.66 -18 114 C-16.9296875 115.77734375 -16.9296875 115.77734375 -15.875 117.9375 C-15.52179687 118.64777344 -15.16859375 119.35804688 -14.8046875 120.08984375 C-14 122 -14 122 -14 124 C-12.68 124 -11.36 124 -10 124 C-9.67 123.34 -9.34 122.68 -9 122 C-5.24505482 123.25164839 -4.43006264 124.92694633 -2 128 C8.67167145 137.46516083 22.05970767 144.78300946 36 148 C35.34 149.32 34.68 150.64 34 152 C40.03738371 154.67735567 46.15189285 154.33086864 52.625 154.3125 C53.73746094 154.32861328 54.84992188 154.34472656 55.99609375 154.36132812 C62.7917483 154.36528369 68.74137982 153.59062464 75.25927734 151.64526367 C78.25441617 150.94010138 80.93370842 150.89308882 84 151 C84 150.34 84 149.68 84 149 C84.85464844 148.73445312 85.70929688 148.46890625 86.58984375 148.1953125 C87.69457031 147.84210938 88.79929687 147.48890625 89.9375 147.125 C91.03964844 146.77695313 92.14179688 146.42890625 93.27734375 146.0703125 C96.12878804 145.29975705 96.12878804 145.29975705 97 143 C98.11375 142.5978125 98.11375 142.5978125 99.25 142.1875 C102.2150062 141.10773363 102.2150062 141.10773363 104.625 138.375 C105.40875 137.59125 106.1925 136.8075 107 136 C107.99 136 108.98 136 110 136 C110.2475 135.401875 110.495 134.80375 110.75 134.1875 C112.16370012 131.71352479 113.65055383 130.56629745 116 129 C116.66 129.33 117.32 129.66 118 130 C103.18416152 146.18112053 82.01266519 156.73918482 60.01977539 158.12475586 C37.93735311 158.95741856 19.11779852 153.96941788 1 141 C0.14921875 140.39542969 -0.7015625 139.79085937 -1.578125 139.16796875 C-18.58631008 126.35965759 -30.31985987 105.88870386 -34 85 C-34.34940194 80.49636455 -34.43406337 76.02564471 -34.39111328 71.50927734 C-34.37501274 69.50158804 -34.39106395 67.49591052 -34.41015625 65.48828125 C-34.37673109 54.20171957 -32.42604591 44.20638507 -27.75 33.9375 C-27.44191406 33.2576001 -27.13382813 32.5777002 -26.81640625 31.87719727 C-22.95243056 23.54106399 -10.73632655 0 0 0 Z " fill="#7AD4D4" transform="translate(36,22)"/>
<path d="M0 0 C15.58148959 13.53695712 25.42060044 32.14565915 27.953125 52.58203125 C29.31145677 75.33408848 23.11011388 97.01514957 7.92456055 114.40527344 C-5.71127115 129.42335458 -23.95906994 140.60141912 -44.60473633 141.72070312 C-67.8846682 142.53481234 -88.09797883 138.20768825 -106.046875 122.58203125 C-106.92666016 121.91494141 -106.92666016 121.91494141 -107.82421875 121.234375 C-120.76272782 111.17109017 -129.94803208 93.51162047 -133.046875 77.58203125 C-133.22863281 76.69773437 -133.41039062 75.8134375 -133.59765625 74.90234375 C-136.5801324 52.85795484 -132.27400112 31.66972781 -119.046875 13.58203125 C-116.20522848 10.07941566 -113.2085715 6.79740681 -110.046875 3.58203125 C-109.35980469 2.88207031 -108.67273438 2.18210937 -107.96484375 1.4609375 C-77.60604472 -27.43342967 -31.50884114 -25.00509316 0 0 Z M-107.046875 2.58203125 C-107.82546875 3.28070313 -108.6040625 3.979375 -109.40625 4.69921875 C-123.83619568 18.30597961 -132.10368229 37.76559534 -133.20703125 57.4375 C-133.80770812 78.87905275 -126.19742657 99.51681732 -112.046875 115.58203125 C-111.386875 115.58203125 -110.726875 115.58203125 -110.046875 115.58203125 C-109.716875 116.57203125 -109.386875 117.56203125 -109.046875 118.58203125 C-90.4660607 135.53294956 -69.484604 140.79299053 -44.91772461 139.80126953 C-25.1014396 138.28795854 -7.7419541 128.8168179 5.953125 114.58203125 C22.08844255 95.72698433 27.6340006 74.9283263 25.953125 50.58203125 C23.68079767 31.27539351 12.68124878 12.98236994 -1.734375 0.26953125 C-32.62045217 -24.08295267 -77.66863144 -24.43362629 -107.046875 2.58203125 Z " fill="#224848" transform="translate(143.046875,30.41796875)"/>
<path d="M0 0 C0.99 0.495 0.99 0.495 2 1 C-0.71737262 8.47277469 -3.18349862 12.85082524 -10 17 C-10.99 18.485 -10.99 18.485 -12 20 C-12.969375 20.474375 -13.93875 20.94875 -14.9375 21.4375 C-18.06285818 22.74642611 -18.06285818 22.74642611 -19.625 25.1875 C-20.07875 25.785625 -20.5325 26.38375 -21 27 C-22.32 27 -23.64 27 -25 27 C-25.495 28.485 -25.495 28.485 -26 30 C-27.70703125 30.94921875 -27.70703125 30.94921875 -29.8125 31.6875 C-30.49957031 31.93886719 -31.18664062 32.19023437 -31.89453125 32.44921875 C-34 33 -34 33 -38 33 C-38 33.66 -38 34.32 -38 35 C-48.58330335 38.06286815 -58.65245448 39.40639346 -69.6875 39.4375 C-71.35208252 39.45200195 -71.35208252 39.45200195 -73.05029297 39.46679688 C-79.12834666 39.40395551 -83.62540311 38.89874539 -89 36 C-88.67 35.01 -88.34 34.02 -88 33 C-87.11852295 33.01047363 -86.2370459 33.02094727 -85.32885742 33.03173828 C-82.00575049 33.06616559 -78.68283768 33.09106467 -75.35961914 33.10986328 C-73.93120298 33.1198174 -72.50280662 33.13338562 -71.07446289 33.15087891 C-48.39540042 33.42134124 -28.8294558 26.751981 -11.95703125 11.10546875 C-9.29575717 8.4990663 -7.07511235 6.11266852 -5 3 C-2.5 1.25 -2.5 1.25 0 0 Z " fill="#76D3D3" transform="translate(158,138)"/>
<path d="M0 0 C4.79512513 3.6084179 7.7006316 7.06210185 10.5625 12.3125 C11.13774414 13.35168579 11.13774414 13.35168579 11.72460938 14.41186523 C22.47738455 34.59151289 23.45520995 56.79530316 16.96875 78.44140625 C9.26849082 100.05936361 -6.52578527 116.89521717 -27 127 C-45.26235011 134.49951176 -66.28247762 135.7675405 -85.26953125 130.16796875 C-87.85614195 129.06153585 -89.23993073 128.1553129 -91 126 C-89.9790625 126.28875 -88.958125 126.5775 -87.90625 126.875 C-78.74794737 129.28051371 -70.04213312 130.38684954 -60.5625 130.375 C-59.58152344 130.37628906 -58.60054687 130.37757813 -57.58984375 130.37890625 C-36.4165389 130.06501629 -18.71407407 121.82054368 -3.3125 107.40625 C12.66432396 90.78171696 18.73828596 70.06560677 18.3046875 47.58203125 C17.64907516 31.60080329 11.37263197 15.64945175 1.03125 3.3828125 C0 2 0 2 0 0 Z " fill="#193131" transform="translate(150,39)"/>
<path d="M0 0 C10.20992308 8.62025609 18.78109581 22.27383662 19.97119141 35.83251953 C20.67376545 52.81089386 18.86387763 66.13976358 8.75 80.3125 C6.53125 82.15234375 6.53125 82.15234375 4.75 83.3125 C6.09791837 80.54864902 7.56902873 77.90109754 9.125 75.25 C16.82784901 61.48514555 19.33824008 45.50408743 16.28564453 29.94580078 C12.20652241 15.54318142 2.54761549 3.93080058 -10.30859375 -3.44140625 C-18.79018624 -7.83573944 -26.09519424 -10.02883999 -35.625 -9.9375 C-36.42421875 -9.94523437 -37.2234375 -9.95296875 -38.046875 -9.9609375 C-52.00667812 -9.91576014 -64.48450064 -4.60419385 -74.6875 4.9375 C-79.31305246 9.89510381 -82.5167488 15.44512941 -85.65625 21.40625 C-87.25 24.3125 -87.25 24.3125 -89.25 26.3125 C-88.71089244 16.06945638 -80.39095711 6.99311239 -73.25 0.3125 C-50.7754961 -16.87195254 -22.62346213 -16.9069671 0 0 Z " fill="#2D3D3C" transform="translate(126.25,46.6875)"/>
<path d="M0 0 C-1.58481101 3.9528135 -4.18771498 6.28836951 -7.25 9.1875 C-12.61091356 14.38192556 -17.59840977 19.79522932 -20 27 C-20.66 27 -21.32 27 -22 27 C-22.309375 27.94875 -22.61875 28.8975 -22.9375 29.875 C-24 33 -24 33 -25 35 C-25.66 35 -26.32 35 -27 35 C-27.07347656 35.88751953 -27.07347656 35.88751953 -27.1484375 36.79296875 C-27.57202633 41.26986448 -28.28852009 44.82826772 -30 49 C-31.4589038 58.2979432 -31.17443924 67.61516898 -31 77 C-30.98324219 77.96550781 -30.96648438 78.93101563 -30.94921875 79.92578125 C-30.56860334 86.22224755 -28.62385572 92.13228645 -26.7277832 98.11401367 C-25.62861714 101.60961039 -25 104.29804535 -25 108 C-24.34 108 -23.68 108 -23 108 C-21.98133771 109.65532623 -20.98189187 111.32260138 -20 113 C-19.34 113.33 -18.68 113.66 -18 114 C-16.47781543 117.03097749 -15.10823408 120.1157952 -13.73046875 123.21484375 C-11.73441314 126.42745696 -10.52124348 126.9050143 -7 128 C-5.625 129.9375 -5.625 129.9375 -5 132 C-5.33 132.99 -5.66 133.98 -6 135 C-7.69576513 133.35722753 -9.35283083 131.69104051 -11 130 C-11.60457031 129.3915625 -12.20914062 128.783125 -12.83203125 128.15625 C-22.36089975 118.08233774 -28.03967555 106.17038131 -32 93 C-32.36738281 91.85789062 -32.73476563 90.71578125 -33.11328125 89.5390625 C-34.52139536 83.72711323 -34.33477515 77.75791322 -34.31567383 71.81103516 C-34.31252772 69.76800411 -34.33598318 67.72644522 -34.36132812 65.68359375 C-34.41789944 54.3357146 -32.45172285 44.26277321 -27.75 33.9375 C-27.44191406 33.2576001 -27.13382813 32.5777002 -26.81640625 31.87719727 C-22.95243056 23.54106399 -10.73632655 0 0 0 Z " fill="#B7D7D6" transform="translate(36,22)"/>
<path d="M0 0 C0.66 0 1.32 0 2 0 C2.33 0.66 2.66 1.32 3 2 C3.66 2 4.32 2 5 2 C6.15625 3.46875 6.15625 3.46875 7.5 5.5 C12.02744666 11.75852921 18.16193017 16.23986053 24.625 20.375 C25.40875 20.91125 26.1925 21.4475 27 22 C27 22.66 27 23.32 27 24 C26.34 24.66 25.68 25.32 25 26 C24.97624074 27.9931567 24.97624074 27.9931567 25.375 30.125 C25.58125 31.40375 25.7875 32.6825 26 34 C23 33 23 33 21.3125 29.9375 C20.879375 28.968125 20.44625 27.99875 20 27 C19.34 27 18.68 27 18 27 C18 28.65 18 30.3 18 32 C14.59403535 31.36235365 12.23986879 30.0508817 9.375 28.125 C8.59898438 27.61195313 7.82296875 27.09890625 7.0234375 26.5703125 C5 25 5 25 3 22 C4.65 20.02 6.3 18.04 8 16 C7.34 15.67 6.68 15.34 6 15 C6 14.34 6 13.68 6 13 C5.0456517 11.79570334 4.03744193 10.63350137 3 9.5 C0 6.22222222 0 6.22222222 0 4 C-0.66 4 -1.32 4 -2 4 C-1 1 -1 1 0 0 Z " fill="#74C9C9" transform="translate(39,122)"/>
<path d="M0 0 C5.75045651 1.67562971 10.92305774 4.31350174 16.25 7 C17.16007812 7.45117188 18.07015625 7.90234375 19.0078125 8.3671875 C19.87664062 8.80289063 20.74546875 9.23859375 21.640625 9.6875 C22.42985352 10.08324219 23.21908203 10.47898437 24.03222656 10.88671875 C26 12 26 12 28 14 C28 15.32 28 16.64 28 18 C23.65883413 17.3422476 20.0052117 15.75965131 16 14 C15.9752655 18.07510438 15.95712363 22.15017964 15.94506836 26.2253418 C15.94004223 27.61141725 15.93322034 28.99748741 15.92456055 30.38354492 C15.91241982 32.37676715 15.90728979 34.37002819 15.90234375 36.36328125 C15.89710693 37.56251221 15.89187012 38.76174316 15.88647461 39.99731445 C15.86154382 43.05156451 15.86154382 43.05156451 17 46 C19.01508358 46.73323796 19.01508358 46.73323796 21 47 C18 48 18 48 15.82348633 47.10375977 C15.00130615 46.63768311 14.17912598 46.17160645 13.33203125 45.69140625 C12.43935547 45.19189453 11.54667969 44.69238281 10.62695312 44.17773438 C9.23379883 43.37819336 9.23379883 43.37819336 7.8125 42.5625 C6.87212891 42.03333984 5.93175781 41.50417969 4.96289062 40.95898438 C2.6366673 39.64826971 0.31617655 38.32836283 -2 37 C-1.01 36.505 -1.01 36.505 0 36 C3.63 37.65 7.26 39.3 11 41 C11 30.77 11 20.54 11 10 C9.02 9.34 7.04 8.68 5 8 C2.125 6.6875 2.125 6.6875 0 5 C-0.3125 2.3125 -0.3125 2.3125 0 0 Z " fill="#385253" transform="translate(61,68)"/>
<path d="M0 0 C2.04123694 1.00545894 4.01618916 2.08667446 5.99438477 3.21069336 C6.67823242 3.58774414 7.36208008 3.96479492 8.06665039 4.35327148 C9.73546273 5.27520278 11.39696341 6.21034848 13.05688477 7.14819336 C10.05688477 8.14819336 10.05688477 8.14819336 8.24755859 7.52734375 C7.59295654 7.18695068 6.93835449 6.84655762 6.26391602 6.49584961 C5.30062378 6.00483765 5.30062378 6.00483765 4.31787109 5.50390625 C3.50987061 5.077146 2.70187012 4.65038574 1.86938477 4.21069336 C-0.70874023 2.87006836 -3.28686523 1.52944336 -5.94311523 0.14819336 C-5.94311523 7.07819336 -5.94311523 14.00819336 -5.94311523 21.14819336 C-10.72542773 19.95261524 -14.73290362 17.95650345 -19.13061523 15.77319336 C-19.96270508 15.37358398 -20.79479492 14.97397461 -21.65209961 14.56225586 C-22.44293945 14.17038086 -23.2337793 13.77850586 -24.04858398 13.37475586 C-24.77198975 13.01978027 -25.49539551 12.66480469 -26.24072266 12.29907227 C-27.94311523 11.14819336 -27.94311523 11.14819336 -28.94311523 8.14819336 C-25.77089778 6.43075079 -22.57840034 4.75497741 -19.38061523 3.08569336 C-18.03773437 2.35769531 -18.03773437 2.35769531 -16.66772461 1.61499023 C-10.55024068 -1.54458938 -6.62662801 -2.90492589 0 0 Z " fill="#7EC0BF" transform="translate(95.943115234375,52.851806640625)"/>
<path d="M0 0 C0.99 0.495 0.99 0.495 2 1 C-12.81583848 17.18112053 -33.98733481 27.73918482 -55.98022461 29.12475586 C-76.88496858 29.9130118 -96.03700215 25.8636067 -113 13 C-109.40119296 13 -108.16953679 13.95596496 -105.125 15.8125 C-99.98400607 18.70558245 -95.20626956 20.15822936 -89.43359375 21.26171875 C-86.62132697 21.8664041 -84.11340117 22.63705286 -81.40234375 23.55859375 C-75.31012306 25.41837248 -69.45313818 25.44161198 -63.125 25.375 C-61.48337891 25.39240234 -61.48337891 25.39240234 -59.80859375 25.41015625 C-53.0944677 25.38631912 -47.18968673 24.55662232 -40.74951172 22.64306641 C-37.75158414 21.94189954 -35.06820517 21.89326509 -32 22 C-32 21.34 -32 20.68 -32 20 C-31.14535156 19.73445313 -30.29070312 19.46890625 -29.41015625 19.1953125 C-28.30542969 18.84210938 -27.20070313 18.48890625 -26.0625 18.125 C-24.40927734 17.60292969 -24.40927734 17.60292969 -22.72265625 17.0703125 C-19.87121196 16.29975705 -19.87121196 16.29975705 -19 14 C-18.2575 13.731875 -17.515 13.46375 -16.75 13.1875 C-13.7849938 12.10773363 -13.7849938 12.10773363 -11.375 9.375 C-10.199375 8.199375 -10.199375 8.199375 -9 7 C-8.01 7 -7.02 7 -6 7 C-5.7525 6.401875 -5.505 5.80375 -5.25 5.1875 C-3.83629988 2.71352479 -2.34944617 1.56629745 0 0 Z " fill="#98B6B6" transform="translate(152,151)"/>
<path d="M0 0 C7.03433807 2.48270755 11.39267377 6.21130807 16 12 C16.928125 12.9075 17.85625 13.815 18.8125 14.75 C21 17 21 17 21 19 C21.5775 19.185625 22.155 19.37125 22.75 19.5625 C27.10246253 22.34323995 28.87217814 27.11277193 30 32 C30.99 32.495 30.99 32.495 32 33 C33.1875 35.375 33.1875 35.375 34 38 C33.67 38.99 33.34 39.98 33 41 C32.01 40.01 31.02 39.02 30 38 C30 39.65 30 41.3 30 43 C28.18371795 40.27557692 26.66521057 37.49483806 25.13354492 34.60571289 C18.09019578 21.52173995 9.11744217 12.43224068 -3 4 C-2.01 2.68 -1.02 1.36 0 0 Z " fill="#79D3D3" transform="translate(136,20)"/>
<path d="M0 0 C2.475 0.495 2.475 0.495 5 1 C5 14.2 5 27.4 5 41 C0.75125 43.145 -3.4975 45.29 -7.875 47.5 C-9.2141748 48.17869141 -10.55334961 48.85738281 -11.93310547 49.55664062 C-12.98385254 50.08451172 -14.03459961 50.61238281 -15.1171875 51.15625 C-16.19597168 51.70087891 -17.27475586 52.24550781 -18.38623047 52.80664062 C-21 54 -21 54 -23 54 C-23 55.32 -23 56.64 -23 58 C-23 61.66666667 -23 65.33333333 -23 69 C-23.99 69 -24.98 69 -26 69 C-26.50310058 67.2092015 -27.00238628 65.41733089 -27.5 63.625 C-27.7784375 62.62726563 -28.056875 61.62953125 -28.34375 60.6015625 C-29 58 -29 58 -29 56 C-31.46326712 54.3553326 -31.46326712 54.3553326 -34 53 C-33.01 52.505 -33.01 52.505 -32 52 C-31.16210938 52.39960937 -30.32421875 52.79921875 -29.4609375 53.2109375 C-24.25373609 54.3981324 -21.15128079 52.12275623 -16.625 49.625 C-15.79355469 49.18671875 -14.96210937 48.7484375 -14.10546875 48.296875 C-12.06077206 47.21577101 -10.02903197 46.11022504 -8 45 C-8 42.03 -8 39.06 -8 36 C-6.515 36.495 -6.515 36.495 -5 37 C-5.66 37 -6.32 37 -7 37 C-7 38.32 -7 39.64 -7 41 C-6.401875 40.690625 -5.80375 40.38125 -5.1875 40.0625 C-2.76267137 38.88472609 -0.72274956 38 2 38 C2 26.78 2 15.56 2 4 C1.34 4 0.68 4 0 4 C0 2.68 0 1.36 0 0 Z " fill="#466767" transform="translate(116,64)"/>
<path d="M0 0 C0 0.99 0 1.98 0 3 C0.52568262 6.99518789 1.88677501 9.60046415 4 13 C4 13.66 4 14.32 4 15 C-3.96479921 19.04313337 -3.96479921 19.04313337 -8 18.875 C-10 18 -10 18 -11 16 C-11 17.65 -11 19.3 -11 21 C-11.66 21 -12.32 21 -13 21 C-13 17.7 -13 14.4 -13 11 C-14.65 11.33 -16.3 11.66 -18 12 C-16.64382469 8.70901459 -15.51070249 7.38604881 -12.3046875 5.859375 C-11.58925781 5.51132813 -10.87382813 5.16328125 -10.13671875 4.8046875 C-9.39035156 4.45664063 -8.64398438 4.10859375 -7.875 3.75 C-7.12089844 3.38648438 -6.36679688 3.02296875 -5.58984375 2.6484375 C-3.73178414 1.75468731 -1.86655182 0.87587625 0 0 Z " fill="#77D0D0" transform="translate(123,138)"/>
<path d="M0 0 C0 9.9 0 19.8 0 30 C-2.64 28.68 -5.28 27.36 -8 26 C-8 18.41 -8 10.82 -8 3 C-2 0 -2 0 0 0 Z " fill="#EBEEEC" transform="translate(117,70)"/>
<path d="M0 0 C0.33 0.99 0.66 1.98 1 3 C1.66 3 2.32 3 3 3 C3 5.97 3 8.94 3 12 C1.68 12 0.36 12 -1 12 C-1.33 12.66 -1.66 13.32 -2 14 C0.31 14.66 2.62 15.32 5 16 C4.67 17.32 4.34 18.64 4 20 C3.0925 19.360625 2.185 18.72125 1.25 18.0625 C-1.95782977 15.78738491 -1.95782977 15.78738491 -6 15 C-5.01 17.64 -4.02 20.28 -3 23 C-3.66 23 -4.32 23 -5 23 C-5.33 23.99 -5.66 24.98 -6 26 C-7.65 24.02 -9.3 22.04 -11 20 C-11.33 20.66 -11.66 21.32 -12 22 C-10.35 24.31 -8.7 26.62 -7 29 C-7.66 29 -8.32 29 -9 29 C-9.33 29.66 -9.66 30.32 -10 31 C-10.86916887 29.59248779 -11.71985149 28.1735479 -12.5625 26.75 C-13.27599609 25.56664062 -13.27599609 25.56664062 -14.00390625 24.359375 C-15.15111986 21.64205336 -15.05934197 20.69650684 -14 18 C-12.52635723 15.05271446 -11.3287106 13.24875397 -8.6875 11.25 C-4.90401745 8.08243322 -2.58856598 4.16305457 0 0 Z " fill="#73CDCD" transform="translate(137,122)"/>
<path d="M0 0 C1.36892877 1.29676119 2.71681108 2.61834094 4 4 C-0.24645065 4 -2.38524772 2.18249194 -6 0 C-6 -0.66 -6 -1.32 -6 -2 C-7.27037109 -2.40025391 -7.27037109 -2.40025391 -8.56640625 -2.80859375 C-13.33496054 -4.46321156 -17.86960216 -6.57881205 -22.46484375 -8.66015625 C-26.02200769 -10.00834104 -29.23876027 -10.54337891 -33 -11 C-33.495 -11.495 -33.495 -11.495 -34 -12 C-42.00014708 -13.23204371 -50.11665962 -13.1239651 -58.1875 -13.0625 C-59.33025391 -13.05798828 -60.47300781 -13.05347656 -61.65039062 -13.04882812 C-64.4336511 -13.03718268 -67.21679572 -13.02082997 -70 -13 C-55.37179963 -29.02608966 -13.50060037 -9.55105765 0 0 Z " fill="#C8DFDE" transform="translate(142,20)"/>
<path d="M0 0 C0.04936883 4.80548597 0.08570443 9.61082494 0.10986328 14.41650391 C0.11993254 16.05194672 0.13358881 17.68737149 0.15087891 19.32275391 C0.17508705 21.6709437 0.18647357 24.01889588 0.1953125 26.3671875 C0.20563507 27.10057343 0.21595764 27.83395935 0.22659302 28.58956909 C0.22699368 30.39462697 0.12212755 32.1990783 0 34 C-0.66 34.66 -1.32 35.32 -2 36 C-2.99 36 -3.98 36 -5 36 C-5 24.45 -5 12.9 -5 1 C-3 0 -3 0 0 0 Z " fill="#869C9C" transform="translate(107,74)"/>
<path d="M0 0 C3.12512341 1.4789064 6.25010402 2.95811318 9.375 4.4375 C10.26445313 4.85837891 11.15390625 5.27925781 12.0703125 5.71289062 C12.92109375 6.11572266 13.771875 6.51855469 14.6484375 6.93359375 C15.43395996 7.30540771 16.21948242 7.67722168 17.02880859 8.06030273 C18.358629 8.69424858 19.68233248 9.34116624 21 10 C20.67 10.99 20.34 11.98 20 13 C16.20795281 13.69649846 13.20613726 14.03198682 9.375 13.4375 C5.75909679 12.96877181 4.08787931 13.09278043 1 15 C0.67 16.32 0.34 17.64 0 19 C0 12.73 0 6.46 0 0 Z " fill="#F2F5F3" transform="translate(92,55)"/>
<path d="M0 0 C0.99 0.495 0.99 0.495 2 1 C-17.66564779 15.51910592 -39.15446549 21.01056005 -63.52978516 17.65136719 C-75.45736832 15.33817002 -75.45736832 15.33817002 -79 11 C-77.46859375 11.433125 -77.46859375 11.433125 -75.90625 11.875 C-66.74794737 14.28051371 -58.04213312 15.38684954 -48.5625 15.375 C-47.58152344 15.37628906 -46.60054687 15.37757813 -45.58984375 15.37890625 C-29.43087922 15.13935287 -15.27626699 10.51737182 -2.07421875 1.22265625 C-1.38972656 0.81917969 -0.70523438 0.41570312 0 0 Z " fill="#193130" transform="translate(138,154)"/>
<path d="M0 0 C3.69230769 0.69230769 3.69230769 0.69230769 5 2 C5.23743476 5.82533783 5.39667966 9.64419229 5.51757812 13.47460938 C5.56881836 14.67633789 5.56881836 14.67633789 5.62109375 15.90234375 C5.6461499 16.63960693 5.67120605 17.37687012 5.69702148 18.13647461 C5.85314702 20.24279269 5.85314702 20.24279269 8 22 C3.59585492 24.37823834 3.59585492 24.37823834 1 25 C-2.4375 23.6875 -2.4375 23.6875 -5 22 C-4.5148291 21.59152832 -4.0296582 21.18305664 -3.52978516 20.76220703 C-1.67025105 18.62015194 -1.59919023 17.60261148 -1.5234375 14.8046875 C-1.4925 14.00675781 -1.4615625 13.20882812 -1.4296875 12.38671875 C-1.41164063 11.55785156 -1.39359375 10.72898437 -1.375 9.875 C-1.10472973 1.10472973 -1.10472973 1.10472973 0 0 Z " fill="#ECF0EF" transform="translate(88,91)"/>
<path d="M0 0 C5 2 5 2 8 4 C8.22137393 6.62697064 8.28162025 9.00893964 8.1875 11.625 C8.17396484 12.33140625 8.16042969 13.0378125 8.14648438 13.765625 C8.1111104 15.51074128 8.05730221 17.25546608 8 19 C4.04 20.98 4.04 20.98 0 23 C0 15.41 0 7.82 0 0 Z " fill="#EAEDEB" transform="translate(62,77)"/>
<path d="M0 0 C0 5.28 0 10.56 0 16 C-4.14667871 14.61777376 -7.55940815 13.33435798 -11.375 11.375 C-12.24898438 10.92898437 -13.12296875 10.48296875 -14.0234375 10.0234375 C-14.67570312 9.68570313 -15.32796875 9.34796875 -16 9 C-13.41045759 5.98490341 -10.41813517 4.54137921 -6.875 2.8125 C-5.79992187 2.28269531 -4.72484375 1.75289062 -3.6171875 1.20703125 C-1 0 -1 0 0 0 Z " fill="#F1F5F3" transform="translate(87,55)"/>
<path d="M0 0 C0.99 0.33 1.98 0.66 3 1 C2.67 1.99 2.34 2.98 2 4 C1.01 4.33 0.02 4.66 -1 5 C-0.67 5.99 -0.34 6.98 0 8 C-1.98 7.34 -3.96 6.68 -6 6 C-5.34 7.98 -4.68 9.96 -4 12 C-4.99 12 -5.98 12 -7 12 C-6.67 12.99 -6.34 13.98 -6 15 C-9.55780196 14.39009109 -12.6828589 13.4216319 -16 12 C-15.67 11.01 -15.34 10.02 -15 9 C-13.02 9.495 -13.02 9.495 -11 10 C-11.226875 9.278125 -11.45375 8.55625 -11.6875 7.8125 C-12.08783577 4.20947803 -11.13915117 2.85220155 -9 0 C-5.90998791 -1.54500605 -3.32822635 -0.58389936 0 0 Z " fill="#6BAFAE" transform="translate(151,124)"/>
<path d="M0 0 C5.70323584 1.62682465 10.68013903 4.33197987 15.875 7.125 C16.75414063 7.59292969 17.63328125 8.06085938 18.5390625 8.54296875 C20.69494271 9.6912093 22.84846777 10.84363903 25 12 C25 12.66 25 13.32 25 14 C24.0925 13.690625 23.185 13.38125 22.25 13.0625 C19.86182795 12.28175145 17.43753666 11.60938416 15 11 C14.67 20.24 14.34 29.48 14 39 C13.34 38.67 12.68 38.34 12 38 C11.67 27.77 11.34 17.54 11 7 C9.02 6.34 7.04 5.68 5 5 C2.125 3.5 2.125 3.5 0 2 C0 1.34 0 0.68 0 0 Z " fill="#EEF2F0" transform="translate(62,70)"/>
<path d="M0 0 C6.62258079 9.93387119 5.31115599 25.46281588 3.34765625 36.75 C0.78874078 45.00881732 -3.57571172 55.16444381 -11 60 C-9.65208163 57.23614902 -8.18097127 54.58859754 -6.625 51.9375 C-0.8847527 41.67977997 1.18026194 32.27562774 1.1875 20.6875 C1.19974609 19.66720703 1.21199219 18.64691406 1.22460938 17.59570312 C1.23556699 11.94522807 0.71602395 7.36529007 -1 2 C-0.67 1.34 -0.34 0.68 0 0 Z " fill="#32403F" transform="translate(142,70)"/>
<path d="M0 0 C12.44616454 -0.79443603 24.28031339 5.93367003 33.60546875 13.6875 C39.22560879 19.1151067 43.98805593 25.7752081 47 33 C46.6875 35.375 46.6875 35.375 46 37 C45.50371094 36.0821875 45.00742188 35.164375 44.49609375 34.21875 C35.95034752 18.66464364 26.20551931 8.89640287 9 3 C6.00041765 2.18540338 3.0609857 1.56118071 0 1 C0 0.67 0 0.34 0 0 Z " fill="#283635" transform="translate(95,35)"/>
<path d="M0 0 C2.31 0 4.62 0 7 0 C7.33 2.31 7.66 4.62 8 7 C8.66 4.69 9.32 2.38 10 0 C10.99 0 11.98 0 13 0 C13.33 2.97 13.66 5.94 14 9 C10.59112017 9.85221996 8.19565369 10.10783755 4.75 10.0625 C2.39875 10.0315625 2.39875 10.0315625 0 10 C0 6.7 0 3.4 0 0 Z " fill="#4C4C4C" transform="translate(72,123)"/>
<path d="M0 0 C0.96808594 0.49242187 1.93617188 0.98484375 2.93359375 1.4921875 C11.07238695 5.91613491 17.43642797 11.5644409 24 18 C23.34 18.66 22.68 19.32 22 20 C21.360625 19.34 20.72125 18.68 20.0625 18 C19.04359779 16.99803245 18.02248418 15.99831198 17 15 C16.40316406 14.39542969 15.80632812 13.79085937 15.19140625 13.16796875 C-0.51017771 -1.88061928 -20.02834878 -5.53665403 -41 -7 C-41 -7.33 -41 -7.66 -41 -8 C-26.89636388 -10.82072722 -12.5062939 -6.43783905 0 0 Z " fill="#2C5656" transform="translate(127,20)"/>
<path d="M0 0 C2 2 2 2 2 5 C2.66 5 3.32 5 4 5 C5.49821059 8.37097383 6 10.20442119 6 14 C6.66 14 7.32 14 8 14 C9.01866229 15.65532623 10.01810813 17.32260138 11 19 C11.66 19.33 12.32 19.66 13 20 C14.52218457 23.03097749 15.89176592 26.1157952 17.26953125 29.21484375 C19.26558686 32.42745696 20.47875652 32.9050143 24 34 C25.375 35.9375 25.375 35.9375 26 38 C25.67 38.99 25.34 39.98 25 41 C23.30423487 39.35722753 21.64716917 37.69104051 20 36 C19.39542969 35.3915625 18.79085938 34.783125 18.16796875 34.15625 C10.42782699 25.97337824 0 11.75482135 0 0 Z " fill="#A8C3C2" transform="translate(5,116)"/>
<path d="M0 0 C2.31 0 4.62 0 7 0 C6.67 2.64 6.34 5.28 6 8 C6.66 8 7.32 8 8 8 C8.33 5.36 8.66 2.72 9 0 C9.99 0 10.98 0 12 0 C12.66 3.3 13.32 6.6 14 10 C9.38 10 4.76 10 0 10 C0 6.7 0 3.4 0 0 Z " fill="#666666" transform="translate(106,123)"/>
<path d="M0 0 C0.66 0 1.32 0 2 0 C2.33 10.23 2.66 20.46 3 31 C3.66 31.33 4.32 31.66 5 32 C5.33 32.99 5.66 33.98 6 35 C8.01508358 35.73323796 8.01508358 35.73323796 10 36 C7 37 7 37 4.82348633 36.10375977 C4.00130615 35.63768311 3.17912598 35.17160645 2.33203125 34.69140625 C1.43935547 34.19189453 0.54667969 33.69238281 -0.37304688 33.17773438 C-1.76620117 32.37819336 -1.76620117 32.37819336 -3.1875 31.5625 C-4.12787109 31.03333984 -5.06824219 30.50417969 -6.03710938 29.95898438 C-8.3633327 28.64826971 -10.68382345 27.32836283 -13 26 C-12.34 25.67 -11.68 25.34 -11 25 C-7.37 26.65 -3.74 28.3 0 30 C0 20.1 0 10.2 0 0 Z " fill="#507372" transform="translate(72,79)"/>
<path d="M0 0 C3.63 0 7.26 0 11 0 C11 3.3 11 6.6 11 10 C7.37 10 3.74 10 0 10 C0 6.7 0 3.4 0 0 Z " fill="#545454" transform="translate(60,123)"/>
<path d="M0 0 C3.63 0.33 7.26 0.66 11 1 C10.67 1.99 10.34 2.98 10 4 C10.33 4.66 10.66 5.32 11 6 C11.66 4.68 12.32 3.36 13 2 C13.66 2 14.32 2 15 2 C15.33 2.66 15.66 3.32 16 4 C16.66 3.67 17.32 3.34 18 3 C17.67 5.31 17.34 7.62 17 10 C11.72 9.01 6.44 8.02 1 7 C0.67 4.69 0.34 2.38 0 0 Z " fill="#497A79" transform="translate(94,19)"/>
<path d="M0 0 C0.33 0 0.66 0 1 0 C1 11.22 1 22.44 1 34 C2.32 33.34 3.64 32.68 5 32 C5.70788435 28.66024628 5.70788435 28.66024628 5.75 24.875 C5.80671875 23.59367187 5.8634375 22.31234375 5.921875 20.9921875 C5.94765625 20.00476563 5.9734375 19.01734375 6 18 C6.58265625 18.62390625 7.1653125 19.2478125 7.765625 19.890625 C9.81073098 21.82131946 11.17444724 22.75940278 13.75 23.75 C14.8225 24.1625 15.895 24.575 17 25 C14.06171403 27.50298434 11.82097239 28.46930939 8 29 C8 29.99 8 30.98 8 32 C5.63814653 35.10770194 3.92443428 35.43022629 0 37 C0 24.79 0 12.58 0 0 Z " fill="#86C2C3" transform="translate(101,76)"/>
<path d="M0 0 C0 1.65 0 3.3 0 5 C-0.99 5 -1.98 5 -3 5 C-3 5.66 -3 6.32 -3 7 C-1.02 6.67 0.96 6.34 3 6 C3.33 7.65 3.66 9.3 4 11 C3.01 11.66 2.02 12.32 1 13 C2.65 13.33 4.3 13.66 6 14 C5.25 15.9375 5.25 15.9375 4 18 C1.921875 18.62890625 1.921875 18.62890625 0 19 C-0.42152344 17.94039062 -0.84304687 16.88078125 -1.27734375 15.7890625 C-1.83068362 14.40102351 -2.38407153 13.01300367 -2.9375 11.625 C-3.21529297 10.92632812 -3.49308594 10.22765625 -3.77929688 9.5078125 C-5.28466196 5.70767754 -5.28466196 5.70767754 -7 2 C-4 0 -4 0 0 0 Z " fill="#2F4D4B" transform="translate(150,52)"/>
<path d="M0 0 C12.47588792 5.32228246 20.88803593 20.49948107 25.96875 32.39453125 C30.49926362 43.84094256 30.49926362 43.84094256 30 49 C27.82484141 45.73726211 26.68988059 42.69089287 25.375 39 C24.92898437 37.7625 24.48296875 36.525 24.0234375 35.25 C23 32 23 32 23 29 C22.01 28.67 21.02 28.34 20 28 C19.21343841 26.29578322 18.43517475 24.58575365 17.74609375 22.83984375 C15.93594017 18.37606189 13.41799139 15.31746223 10 12 C9.195625 11.030625 8.39125 10.06125 7.5625 9.0625 C5.04519218 5.96218613 5.04519218 5.96218613 2.1875 3.1875 C1.465625 2.465625 0.74375 1.74375 0 1 C0 0.67 0 0.34 0 0 Z " fill="#ACC3C2" transform="translate(145,24)"/>
<path d="M0 0 C0.66 0 1.32 0 2 0 C-1.66398888 20.13704458 -10.63446363 39.96206378 -28 52 C-28 51.01 -28 50.02 -28 49 C-26.56640625 47.59765625 -26.56640625 47.59765625 -24.5625 46.0625 C-10.63845645 34.33180136 -3.50616872 17.4483455 0 0 Z " fill="#254B4B" transform="translate(168,103)"/>
<path d="M0 0 C0 6.6 0 13.2 0 20 C-3.75084639 19.24983072 -5.64514273 18.86396529 -8.76953125 17.15234375 C-9.43017578 16.79462891 -10.09082031 16.43691406 -10.77148438 16.06835938 C-11.44501953 15.69517578 -12.11855469 15.32199219 -12.8125 14.9375 C-13.85180664 14.37192383 -13.85180664 14.37192383 -14.91210938 13.79492188 C-16.61128985 12.86916148 -18.30609425 11.93537688 -20 11 C-20 10.34 -20 9.68 -20 9 C-2 0 -2 0 0 0 Z M-10 5.375 C-10.65484375 5.69210938 -11.3096875 6.00921875 -11.984375 6.3359375 C-15.63323682 7.96269605 -15.63323682 7.96269605 -18 11 C-15.71070947 12.17154293 -13.41881638 13.33738074 -11.125 14.5 C-10.47402344 14.83386719 -9.82304688 15.16773437 -9.15234375 15.51171875 C-5.7475529 17.36843717 -5.7475529 17.36843717 -2 18 C-2 12.72 -2 7.44 -2 2 C-4.6305233 2 -7.62666109 4.1976744 -10 5.375 Z " fill="#507272" transform="translate(89,53)"/>
<path d="M0 0 C3.8127519 1.2709173 6.90625009 2.33081901 10.375 4.125 C11.06335938 4.47820313 11.75171875 4.83140625 12.4609375 5.1953125 C12.96882813 5.46085937 13.47671875 5.72640625 14 6 C13.67 6.66 13.34 7.32 13 8 C9.7 6.35 6.4 4.7 3 3 C3 7.62 3 12.24 3 17 C4.65 16.01 6.3 15.02 8 14 C11.8125 14.3125 11.8125 14.3125 15 15 C11.46588679 17.12046792 8.05606165 17.53199289 4 18 C4 19.65 4 21.3 4 23 C2.68 22.67 1.36 22.34 0 22 C0 14.74 0 7.48 0 0 Z " fill="#678583" transform="translate(90,53)"/>
<path d="M0 0 C1.9375 0.8125 1.9375 0.8125 4 2 C4.33 2.99 4.66 3.98 5 5 C4.01 5.495 4.01 5.495 3 6 C1.96567042 8.39188716 1.07268638 10.73832905 0.375 13.25 C-1.39392846 15.5013635 -2.34125351 15.39713073 -5.125 15.75 C-6.40375 15.8325 -7.6825 15.915 -9 16 C-8.01 13.03 -7.02 10.06 -6 7 C-4.02 7 -2.04 7 0 7 C-0.66 5.35 -1.32 3.7 -2 2 C-1.34 1.34 -0.68 0.68 0 0 Z " fill="#64A6A5" transform="translate(36,45)"/>
<path d="M0 0 C3.94120709 0.56302958 6.7508723 1.6791945 10 4 C10 4.66 10 5.32 10 6 C8.35 6.33 6.7 6.66 5 7 C5 7.99 5 8.98 5 10 C3.25 11.75 3.25 11.75 1 13 C-1 13 -1 13 -3 12 C-5.25 9.4375 -5.25 9.4375 -7 7 C-6.01 6.01 -5.02 5.02 -4 4 C-2.02 6.97 -2.02 6.97 0 10 C0.66 9.01 1.32 8.02 2 7 C1.19351312 3.34329469 1.19351312 3.34329469 0 0 Z " fill="#426F6F" transform="translate(131,137)"/>
<path d="M0 0 C0.33 0.66 0.66 1.32 1 2 C2.32 2 3.64 2 5 2 C5 3.32 5 4.64 5 6 C3.3603125 6.4021875 3.3603125 6.4021875 1.6875 6.8125 C-1.73166327 7.91358648 -2.77591981 8.42474926 -5 11 C-5.66 11 -6.32 11 -7 11 C-9 8 -9 8 -9 4 C-8.01 3.67 -7.02 3.34 -6 3 C-5.67 2.34 -5.34 1.68 -5 1 C-2.4375 0.375 -2.4375 0.375 0 0 Z " fill="#3F6B6B" transform="translate(63,24)"/>
<path d="M0 0 C1.41681634 0.31182069 2.83344651 0.62448737 4.25 0.9375 C5.43335937 1.19853516 5.43335937 1.19853516 6.640625 1.46484375 C8.76728673 1.9472157 10.88442798 2.47110699 13 3 C12.67 6.3 12.34 9.6 12 13 C10.35 12.67 8.7 12.34 7 12 C7.66 9.69 8.32 7.38 9 5 C8.01 5.33 7.02 5.66 6 6 C5.67 7.65 5.34 9.3 5 11 C3.35 10.67 1.7 10.34 0 10 C0.37125 8.906875 0.7425 7.81375 1.125 6.6875 C1.558125 4.8621875 1.558125 4.8621875 2 3 C1.34 2.01 0.68 1.02 0 0 Z " fill="#1B3434" transform="translate(65,148)"/>
<path d="M0 0 C1.58409994 0.11487748 3.16728963 0.24234508 4.75 0.375 C6.07257813 0.47941406 6.07257813 0.47941406 7.421875 0.5859375 C9.99066382 0.99850055 11.75841015 1.71160957 14 3 C13.67 4.65 13.34 6.3 13 8 C12.34 8 11.68 8 11 8 C10.67 9.32 10.34 10.64 10 12 C9.01 12 8.02 12 7 12 C6.49384702 10.73160474 5.99530901 9.46016898 5.5 8.1875 C5.2215625 7.47980469 4.943125 6.77210938 4.65625 6.04296875 C4 4 4 4 4 1 C2.68 0.67 1.36 0.34 0 0 Z " fill="#508383" transform="translate(94,149)"/>
<path d="M0 0 C0.99 0.33 1.98 0.66 3 1 C3 1.66 3 2.32 3 3 C3.66 3 4.32 3 5 3 C5 2.34 5 1.68 5 1 C6.32 1 7.64 1 9 1 C9.33 4.3 9.66 7.6 10 11 C8.68 11 7.36 11 6 11 C6 10.01 6 9.02 6 8 C5.34 8 4.68 8 4 8 C4 8.99 4 9.98 4 11 C3.01 11 2.02 11 1 11 C1 9.35 1 7.7 1 6 C0.01 6.495 0.01 6.495 -1 7 C-0.67 4.69 -0.34 2.38 0 0 Z " fill="#558E8E" transform="translate(78,151)"/>
<path d="M0 0 C0.99 0 1.98 0 3 0 C3.33 1.65 3.66 3.3 4 5 C2.23225581 5.53122363 0.46065917 6.04964073 -1.3125 6.5625 C-2.29863281 6.85253906 -3.28476563 7.14257812 -4.30078125 7.44140625 C-7 8 -7 8 -10 7 C-10.33 5.35 -10.66 3.7 -11 2 C-10.38125 1.855625 -9.7625 1.71125 -9.125 1.5625 C-2.95037221 -0.0719603 -2.95037221 -0.0719603 0 0 Z " fill="#3D6563" transform="translate(79,20)"/>
<path d="M0 0 C-1.58481101 3.9528135 -4.18771498 6.28836951 -7.25 9.1875 C-12.61091356 14.38192556 -17.59840977 19.79522932 -20 27 C-20.66 27 -21.32 27 -22 27 C-21.20275932 18.7086969 -15.97005498 14.01575153 -10.37011719 8.38037109 C-9.16020447 7.16140343 -7.97280684 5.9201768 -6.7890625 4.67578125 C-2.29348377 0 -2.29348377 0 0 0 Z " fill="#BCD6D5" transform="translate(36,22)"/>
<path d="M0 0 C-3.26000591 1.72819591 -6.59826634 2.98721738 -10.0625 4.25 C-15.51301267 6.31616734 -20.51946738 8.7543874 -25.5625 11.66796875 C-27.98714543 12.99297531 -30.4166634 14.02663567 -33 15 C-31.55894092 10.67682275 -28.304743 9.57264089 -24.5 7.5 C-23.77111572 7.0985376 -23.04223145 6.6970752 -22.29125977 6.28344727 C-14.8891862 2.28212603 -8.5248532 -0.54413957 0 0 Z " fill="#C1D7D7" transform="translate(70,7)"/>
<path d="M0 0 C2.41025845 2.41025845 2.2940589 3.12918767 2.44921875 6.4375 C2.49240234 7.33339844 2.53558594 8.22929688 2.58007812 9.15234375 C2.61552734 10.09207031 2.65097656 11.03179687 2.6875 12 C2.75807617 13.36318359 2.75807617 13.36318359 2.83007812 14.75390625 C3.09792554 20.92756952 2.78176842 26.87213191 2 33 C1.34 32.67 0.68 32.34 0 32 C0 21.44 0 10.88 0 0 Z " fill="#A8CAC8" transform="translate(175,74)"/>
<path d="M0 0 C0.08004482 3.5219721 0.04005702 6.61981469 -1 10 C-3.31 10 -5.62 10 -8 10 C-8 6.7 -8 3.4 -8 0 C-5.13822943 -1.43088528 -3.06624227 -0.59991697 0 0 Z " fill="#4D8181" transform="translate(28,76)"/>
<path d="M0 0 C0.33 0 0.66 0 1 0 C1 9.24 1 18.48 1 28 C-2.3 29.65 -5.6 31.3 -9 33 C-10 32 -10 32 -10.09765625 30.15234375 C-10.06510417 28.1015625 -10.03255208 26.05078125 -10 24 C-9.01 24.33 -8.02 24.66 -7 25 C-7.66 25 -8.32 25 -9 25 C-9 26.32 -9 27.64 -9 29 C-8.1028125 28.5359375 -8.1028125 28.5359375 -7.1875 28.0625 C-4.76267137 26.88472609 -2.72274956 26 0 26 C0 17.42 0 8.84 0 0 Z " fill="#5B8D8C" transform="translate(118,76)"/>
<path d="M0 0 C3.34998521 1.11666174 3.79340222 1.74694925 5.6875 4.5625 C6.34298828 5.52349609 6.34298828 5.52349609 7.01171875 6.50390625 C7.33785156 6.99761719 7.66398437 7.49132812 8 8 C6.1875 11 6.1875 11 4 14 C3.01 14 2.02 14 1 14 C1.2475 12.824375 1.2475 12.824375 1.5 11.625 C2.0623707 9.11791961 2.0623707 9.11791961 2 7 C1.38125 7.495 0.7625 7.99 0.125 8.5 C-2 10 -2 10 -4 10 C-4.33 9.01 -4.66 8.02 -5 7 C-1.25 4 -1.25 4 1 4 C1 3.34 1 2.68 1 2 C0.34 1.67 -0.32 1.34 -1 1 C-0.67 0.67 -0.34 0.34 0 0 Z " fill="#162D2C" transform="translate(37,127)"/>
<path d="M0 0 C0.66 0 1.32 0 2 0 C2.16435547 1.25103516 2.16435547 1.25103516 2.33203125 2.52734375 C3.1964979 8.66294853 4.20355526 14.39546676 6.4140625 20.1953125 C7 22 7 22 7 25 C6.34 25 5.68 25 5 25 C4.34760842 23.60721983 3.70339448 22.21060788 3.0625 20.8125 C2.70285156 20.03519531 2.34320313 19.25789063 1.97265625 18.45703125 C0.20928513 14.00257167 -0.11990976 9.95251013 -0.0625 5.1875 C-0.05347656 4.21167969 -0.04445312 3.23585938 -0.03515625 2.23046875 C-0.02355469 1.49441406 -0.01195313 0.75835937 0 0 Z " fill="#A4CACB" transform="translate(2,96)"/>
<path d="M0 0 C0.66 0.33 1.32 0.66 2 1 C-5.26238982 8.93162028 -13.96872863 15.95229401 -24 20 C-26.22265625 19.58984375 -26.22265625 19.58984375 -28 19 C-27.43410156 18.80664062 -26.86820312 18.61328125 -26.28515625 18.4140625 C-25.18494141 18.02347656 -25.18494141 18.02347656 -24.0625 17.625 C-23.33160156 17.36976563 -22.60070312 17.11453125 -21.84765625 16.8515625 C-19.81317884 16.14728587 -19.81317884 16.14728587 -19 14 C-18.2575 13.731875 -17.515 13.46375 -16.75 13.1875 C-13.7849938 12.10773363 -13.7849938 12.10773363 -11.375 9.375 C-10.59125 8.59125 -9.8075 7.8075 -9 7 C-8.01 7 -7.02 7 -6 7 C-5.7525 6.401875 -5.505 5.80375 -5.25 5.1875 C-3.83629988 2.71352479 -2.34944617 1.56629745 0 0 Z " fill="#B2CECD" transform="translate(152,151)"/>
<path d="M0 0 C2.31 0 4.62 0 7 0 C7 3.3 7 6.6 7 10 C4.69 10 2.38 10 0 10 C0 6.7 0 3.4 0 0 Z " fill="#5B5B5B" transform="translate(98,123)"/>
<path d="M0 0 C2.97 1.32 5.94 2.64 9 4 C8.67 4.99 8.34 5.98 8 7 C5.9375 7.6875 5.9375 7.6875 4 8 C4.99 8.66 5.98 9.32 7 10 C5 11 5 11 3.0546875 10.44140625 C2.33539063 10.15136719 1.61609375 9.86132812 0.875 9.5625 C0.15054688 9.27503906 -0.57390625 8.98757812 -1.3203125 8.69140625 C-1.87460938 8.46324219 -2.42890625 8.23507813 -3 8 C-2.34099246 4.92463146 -1.46132217 2.92264434 0 0 Z " fill="#152625" transform="translate(149,113)"/>
<path d="M0 0 C1.2684375 0.12375 1.2684375 0.12375 2.5625 0.25 C3.2225 1.24 3.8825 2.23 4.5625 3.25 C5.2225 3.25 5.8825 3.25 6.5625 3.25 C6.5625 3.91 6.5625 4.57 6.5625 5.25 C5.9025 5.25 5.2425 5.25 4.5625 5.25 C4.2325 6.57 3.9025 7.89 3.5625 9.25 C2.799375 8.940625 2.03625 8.63125 1.25 8.3125 C-0.62539677 7.57106407 -2.52434652 6.88771783 -4.4375 6.25 C-3.37788848 0.3464501 -3.37788848 0.3464501 0 0 Z " fill="#294947" transform="translate(122.4375,26.75)"/>
<path d="M0 0 C0.66 0 1.32 0 2 0 C1.28935961 10.18584553 -3.29407826 19.6856569 -9 28 C-10.17887754 24.50710072 -10.02578363 24.05882487 -8.41796875 20.390625 C-7.68622106 19.0041557 -6.94223007 17.624094 -6.1875 16.25 C-3.25626032 10.86838719 -1.27443828 6.01480922 0 0 Z " fill="#A3C2C1" transform="translate(173,111)"/>
<path d="M0 0 C2.3125 -0.25 2.3125 -0.25 5 0 C6.97610386 2.04424538 8 3.1176825 8 6 C7.01 6 6.02 6 5 6 C5.33 6.99 5.66 7.98 6 9 C2.44219804 8.39009109 -0.6828589 7.4216319 -4 6 C-3.67 5.01 -3.34 4.02 -3 3 C-1.02 3.495 -1.02 3.495 1 4 C0.67 2.68 0.34 1.36 0 0 Z " fill="#162927" transform="translate(139,130)"/>
<path d="M0 0 C1.98 0 3.96 0 6 0 C5.34 1.65 4.68 3.3 4 5 C3.34 5 2.68 5 2 5 C2.33 5.66 2.66 6.32 3 7 C5.02463255 7.65213292 5.02463255 7.65213292 7 8 C7 8.99 7 9.98 7 11 C4.69 11.33 2.38 11.66 0 12 C0 8.04 0 4.08 0 0 Z " fill="#345A59" transform="translate(153,81)"/>
<path d="M0 0 C5.71562208 4.37792329 5.71562208 4.37792329 7 7.1875 C7 7.785625 7 8.38375 7 9 C6.34 9.66 5.68 10.32 5 11 C2.375 10.625 2.375 10.625 0 10 C0.33 8.68 0.66 7.36 1 6 C0.01 6 -0.98 6 -2 6 C-2.66 5.34 -3.32 4.68 -4 4 C-2.68 2.68 -1.36 1.36 0 0 Z " fill="#315655" transform="translate(140,41)"/>
<path d="M0 0 C0.66 0 1.32 0 2 0 C2 0.99 2 1.98 2 3 C3.32 3 4.64 3 6 3 C5.34 5.31 4.68 7.62 4 10 C2.02 10 0.04 10 -2 10 C-2 8.35 -2 6.7 -2 5 C-2.66 5 -3.32 5 -4 5 C-4 4.34 -4 3.68 -4 3 C-2.68 3 -1.36 3 0 3 C0 2.01 0 1.02 0 0 Z " fill="#152625" transform="translate(157,96)"/>
<path d="M0 0 C1.32 0 2.64 0 4 0 C6 3 6 3 6 6 C5.34 6 4.68 6 4 6 C4 6.66 4 7.32 4 8 C3.01 8 2.02 8 1 8 C1 8.66 1 9.32 1 10 C0.34 10 -0.32 10 -1 10 C-1.33 7.36 -1.66 4.72 -2 2 C-1.34 2 -0.68 2 0 2 C0 1.34 0 0.68 0 0 Z " fill="#4A7E7D" transform="translate(49,31)"/>
<path d="M0 0 C0.66 0.33 1.32 0.66 2 1 C2 5.33333333 2 9.66666667 2 14 C1.01 14 0.02 14 -1 14 C-1.52955234 12.21089097 -2.0483937 10.41860852 -2.5625 8.625 C-2.85253906 7.62726563 -3.14257812 6.62953125 -3.44140625 5.6015625 C-4 3 -4 3 -3 1 C-2.01 0.67 -1.02 0.34 0 0 Z " fill="#B7B7B7" transform="translate(91,119)"/>
<path d="M0 0 C0.66 0 1.32 0 2 0 C2 0.99 2 1.98 2 3 C3.32 3 4.64 3 6 3 C6 3.66 6 4.32 6 5 C5.34 5 4.68 5 4 5 C4 6.65 4 8.3 4 10 C2.02 10 0.04 10 -2 10 C-2.33 8.02 -2.66 6.04 -3 4 C-2.01 4 -1.02 4 0 4 C0 2.68 0 1.36 0 0 Z " fill="#223E3E" transform="translate(22,96)"/>
<path d="M0 0 C0.99 0 1.98 0 3 0 C3.33 2.97 3.66 5.94 4 9 C0.59112017 9.85221996 -1.80434631 10.10783755 -5.25 10.0625 C-6.14203125 10.05347656 -7.0340625 10.04445312 -7.953125 10.03515625 C-8.62859375 10.02355469 -9.3040625 10.01195312 -10 10 C-7.33788628 8.62420173 -4.93703384 7.62936439 -2 7 C-1.34 4.69 -0.68 2.38 0 0 Z " fill="#A2A2A2" transform="translate(82,123)"/>
<path d="M0 0 C1.2065625 0.0309375 1.2065625 0.0309375 2.4375 0.0625 C2.1075 1.0525 1.7775 2.0425 1.4375 3.0625 C0.7775 3.0625 0.1175 3.0625 -0.5625 3.0625 C0.4275 3.7225 1.4175 4.3825 2.4375 5.0625 C2.1075 6.7125 1.7775 8.3625 1.4375 10.0625 C-0.5425 10.0625 -2.5225 10.0625 -4.5625 10.0625 C-4.2325 9.0725 -3.9025 8.0825 -3.5625 7.0625 C-2.0775 8.0525 -2.0775 8.0525 -0.5625 9.0625 C-0.5625 8.4025 -0.5625 7.7425 -0.5625 7.0625 C-1.8825 6.4025 -3.2025 5.7425 -4.5625 5.0625 C-3.43829114 0.08386076 -3.43829114 0.08386076 0 0 Z " fill="#21403F" transform="translate(93.5625,151.9375)"/>
<path d="M0 0 C2.475 0.99 2.475 0.99 5 2 C4.01 2.33 3.02 2.66 2 3 C2.33 3.886875 2.66 4.77375 3 5.6875 C3.91222143 8.70923347 4.18330958 10.88373706 4 14 C2.02 14 0.04 14 -2 14 C-1.01 13.67 -0.02 13.34 1 13 C0.67 10.03 0.34 7.06 0 4 C-0.99 3.67 -1.98 3.34 -3 3 C-2.01 2.01 -1.02 1.02 0 0 Z " fill="#EEEFED" transform="translate(85,119)"/>
<path d="M0 0 C2 1.125 2 1.125 4 3 C4.25 6.1875 4.25 6.1875 4 9 C3.01 9 2.02 9 1 9 C0.67 9.66 0.34 10.32 0 11 C0.99 11.33 1.98 11.66 3 12 C2.01 12.495 2.01 12.495 1 13 C-0.65 11.35 -2.3 9.7 -4 8 C-2.35 6.02 -0.7 4.04 1 2 C0.34 1.67 -0.32 1.34 -1 1 C-0.67 0.67 -0.34 0.34 0 0 Z " fill="#142D2A" transform="translate(46,136)"/>
<path d="M0 0 C5.66157114 5.66157114 9.69753407 17.05972317 10.1875 25.0625 C10.125625 25.701875 10.06375 26.34125 10 27 C7.82484141 23.73726211 6.68988059 20.69089287 5.375 17 C4.92898437 15.7625 4.48296875 14.525 4.0234375 13.25 C3 10 3 10 3 7 C2.01 6.67 1.02 6.34 0 6 C0 4.02 0 2.04 0 0 Z " fill="#93A8A8" transform="translate(165,46)"/>
<path d="M0 0 C1.9375 0.8125 1.9375 0.8125 4 2 C4.33 2.99 4.66 3.98 5 5 C4.01 5.495 4.01 5.495 3 6 C1.86649466 8.01669827 1.86649466 8.01669827 1 10 C-1.4375 9.625 -1.4375 9.625 -4 9 C-4.33 8.34 -4.66 7.68 -5 7 C-3.35 7 -1.7 7 0 7 C-0.66 5.35 -1.32 3.7 -2 2 C-1.34 1.34 -0.68 0.68 0 0 Z " fill="#2D5351" transform="translate(36,45)"/>
<path d="M0 0 C0.66 0.66 1.32 1.32 2 2 C1.70012049 5.79847379 0.5832325 8.2101089 -2 11 C-2.66 11 -3.32 11 -4 11 C-3.67 9.02 -3.34 7.04 -3 5 C-4.98 5.99 -4.98 5.99 -7 7 C-7.33 6.34 -7.66 5.68 -8 5 C-6.865625 4.54625 -5.73125 4.0925 -4.5625 3.625 C-0.95278308 2.42904194 -0.95278308 2.42904194 0 0 Z " fill="#182F2F" transform="translate(34,121)"/>
<path d="M0 0 C2.31 0 4.62 0 7 0 C7 1.98 7 3.96 7 6 C4.69 6 2.38 6 0 6 C0 4.02 0 2.04 0 0 Z " fill="#315150" transform="translate(20,87)"/>
<path d="M0 0 C0 1.32 0 2.64 0 4 C0.99 3.67 1.98 3.34 3 3 C2.67 5.31 2.34 7.62 2 10 C1.34 10 0.68 10 0 10 C-0.33 9.34 -0.66 8.68 -1 8 C-1.66 8 -2.32 8 -3 8 C-3.66 6.35 -4.32 4.7 -5 3 C-2.25 0 -2.25 0 0 0 Z " fill="#2E5453" transform="translate(134,34)"/>
<path d="M0 0 C5.54768697 3.42651254 8.66921244 9.04159571 11 15 C10.6640625 17.34375 10.6640625 17.34375 10 19 C8.70425129 16.77312024 7.41332692 14.54366825 6.125 12.3125 C5.76019531 11.68666016 5.39539063 11.06082031 5.01953125 10.41601562 C3.06258803 7.01805058 1.34392261 3.69932381 0 0 Z " fill="#1E2928" transform="translate(131,53)"/>
<path d="M0 0 C4 1 4 1 5.265625 2.62890625 C6.17708333 4.41927083 7.08854167 6.20963542 8 8 C5.5625 7.625 5.5625 7.625 3 7 C2.67 6.34 2.34 5.68 2 5 C2 6.65 2 8.3 2 10 C1.34 10 0.68 10 0 10 C0 6.7 0 3.4 0 0 Z " fill="#152A2B" transform="translate(110,149)"/>
<path d="M0 0 C-0.33 0.66 -0.66 1.32 -1 2 C0.65 1.67 2.3 1.34 4 1 C4.33 4.63 4.66 8.26 5 12 C4.34 12 3.68 12 3 12 C2.855625 10.741875 2.71125 9.48375 2.5625 8.1875 C2.13357299 5.95170303 2.13357299 5.95170303 1 4 C-1.87394404 2.38701861 -4.77982829 1.6360833 -8 1 C-4.84227798 -0.73807388 -3.46421706 -1.23722038 0 0 Z " fill="#70BDBA" transform="translate(106,148)"/>
<path d="M0 0 C0 2.31 0 4.62 0 7 C-3.68754757 6.50168276 -5.60490662 5.89932357 -8 3 C-4.93882432 0.37613513 -4.26826873 0 0 0 Z " fill="#6E8786" transform="translate(71,100)"/>
<path d="M0 0 C1 2 1 2 0.22265625 4.3828125 C-0.16019531 5.28773437 -0.54304687 6.19265625 -0.9375 7.125 C-1.31777344 8.03507812 -1.69804687 8.94515625 -2.08984375 9.8828125 C-2.54037109 10.93082031 -2.54037109 10.93082031 -3 12 C-3.66 12 -4.32 12 -5 12 C-5.12375 12.721875 -5.2475 13.44375 -5.375 14.1875 C-5.9904931 16.95721894 -6.88444374 19.3970354 -8 22 C-9.43568342 17.69294974 -7.4886887 14.91593055 -5.6875 11 C-5.36587891 10.27554688 -5.04425781 9.55109375 -4.71289062 8.8046875 C-3.30138828 5.66286298 -1.91986377 2.87979565 0 0 Z " fill="#AFC0BF" transform="translate(14,45)"/>
<path d="M0 0 C1.32 0 2.64 0 4 0 C4.33 3.3 4.66 6.6 5 10 C3.68 10 2.36 10 1 10 C1 8.02 1 6.04 1 4 C0.34 4 -0.32 4 -1 4 C-0.67 2.68 -0.34 1.36 0 0 Z " fill="#172E2C" transform="translate(83,152)"/>
<path d="M0 0 C0.99 0.33 1.98 0.66 3 1 C2.47060248 4.81166211 1.57283706 7.11842249 -1 10 C-1.99 10.495 -1.99 10.495 -3 11 C-3.36923077 4.6 -3.36923077 4.6 -1.5 1.5625 C-1.005 1.046875 -0.51 0.53125 0 0 Z " fill="#6CB0AE" transform="translate(44,135)"/>
<path d="M0 0 C0.66 0 1.32 0 2 0 C2.66 2.97 3.32 5.94 4 9 C2.02 9 0.04 9 -2 9 C-1.01 8.01 -0.02 7.02 1 6 C-0.65 5.67 -2.3 5.34 -4 5 C-4 4.34 -4 3.68 -4 3 C-3.01 2.67 -2.02 2.34 -1 2 C-0.67 1.34 -0.34 0.68 0 0 Z " fill="#2D5251" transform="translate(155,70)"/>
<path d="M0 0 C-3.53411321 2.12046792 -6.94393835 2.53199289 -11 3 C-11 4.65 -11 6.3 -11 8 C-12.32 7.67 -13.64 7.34 -15 7 C-15 4.69 -15 2.38 -15 0 C-14.67 0 -14.34 0 -14 0 C-14 1.98 -14 3.96 -14 6 C-13.34 6 -12.68 6 -12 6 C-12 4.68 -12 3.36 -12 2 C-7.99274479 -1.5215273 -5.02860534 -1.08460115 0 0 Z " fill="#446A6A" transform="translate(105,68)"/>
<path d="M0 0 C1.875 0.3125 1.875 0.3125 4 1 C4.66 1.99 5.32 2.98 6 4 C5.01 4.495 5.01 4.495 4 5 C3.67 5.99 3.34 6.98 3 8 C2.34 8 1.68 8 1 8 C1 7.34 1 6.68 1 6 C0.34 6 -0.32 6 -1 6 C-1.33 4.68 -1.66 3.36 -2 2 C-1.34 2 -0.68 2 0 2 C0 1.34 0 0.68 0 0 Z " fill="#2D4E4E" transform="translate(42,38)"/>
<path d="M0 0 C2.64 0.33 5.28 0.66 8 1 C8.33 2.32 8.66 3.64 9 5 C6.69 5.33 4.38 5.66 2 6 C1.34 4.02 0.68 2.04 0 0 Z " fill="#28494A" transform="translate(68,22)"/>
<path d="M0 0 C0.99 0 1.98 0 3 0 C3.66 2.97 4.32 5.94 5 9 C3.68 9.33 2.36 9.66 1 10 C0.67 6.7 0.34 3.4 0 0 Z " fill="#152929" transform="translate(100,151)"/>
<path d="M0 0 C1.32 0.66 2.64 1.32 4 2 C4 2.99 4 3.98 4 5 C2.68 5 1.36 5 0 5 C0.33 5.99 0.66 6.98 1 8 C0.01 9.485 0.01 9.485 -1 11 C-1.99 8.03 -2.98 5.06 -4 2 C-2.68 2 -1.36 2 0 2 C0 1.34 0 0.68 0 0 Z " fill="#6FB6B4" transform="translate(66,144)"/>
<path d="M0 0 C0.66 0 1.32 0 2 0 C2.66 2.31 3.32 4.62 4 7 C2.35 8.65 0.7 10.3 -1 12 C-1 11.34 -1 10.68 -1 10 C-1.66 9.67 -2.32 9.34 -3 9 C-2.67 8.01 -2.34 7.02 -2 6 C-1.34 6.33 -0.68 6.66 0 7 C0 4.69 0 2.38 0 0 Z " fill="#6DA5A4" transform="translate(49,138)"/>
<path d="M0 0 C3.46941546 0.45822468 6.67395049 0.89131683 10 2 C9.67 2.99 9.34 3.98 9 5 C5.28111761 4.49287967 2.26545761 3.88391785 -1 2 C-0.67 1.34 -0.34 0.68 0 0 Z " fill="#0B1817" transform="translate(144,123)"/>
<path d="M0 0 C1.32 0.66 2.64 1.32 4 2 C3.67 9.26 3.34 16.52 3 24 C2.67 24 2.34 24 2 24 C2 17.4 2 10.8 2 4 C1.01 4 0.02 4 -1 4 C-0.67 2.68 -0.34 1.36 0 0 Z " fill="#82CECD" transform="translate(105,70)"/>
<path d="M0 0 C4.9723422 1.49170266 9.41845739 3.60457417 14 6 C13.01 6.495 13.01 6.495 12 7 C11.67 7.66 11.34 8.32 11 9 C11 8.34 11 7.68 11 7 C10.113125 6.731875 9.22625 6.46375 8.3125 6.1875 C5.2090334 5.0749365 2.68889315 3.89804222 0 2 C0 1.34 0 0.68 0 0 Z " fill="#DEE4E0" transform="translate(62,70)"/>
<path d="M0 0 C3.62276315 1.3255581 6.63505348 2.94346955 9.8125 5.125 C10.60269531 5.66382813 11.39289063 6.20265625 12.20703125 6.7578125 C12.79871094 7.16773438 13.39039063 7.57765625 14 8 C13.34 8.66 12.68 9.32 12 10 C10.66144944 9.21718695 9.32926356 8.42348123 8 7.625 C7.2575 7.18414063 6.515 6.74328125 5.75 6.2890625 C5.1725 5.86367188 4.595 5.43828125 4 5 C4 4.34 4 3.68 4 3 C2.68 2.67 1.36 2.34 0 2 C0 1.34 0 0.68 0 0 Z " fill="#B7D1D1" transform="translate(132,15)"/>
<path d="M0 0 C1.32 0.66 2.64 1.32 4 2 C3.40353695 5.34019306 2.31705841 7.50470633 0 10 C-0.99 10 -1.98 10 -3 10 C-2.690625 9.278125 -2.38125 8.55625 -2.0625 7.8125 C-1.07439461 5.19692691 -0.4712246 2.74881018 0 0 Z " fill="#102020" transform="translate(52,141)"/>
<path d="M0 0 C0.33 0.66 0.66 1.32 1 2 C0.52949219 2.53109375 0.05898438 3.0621875 -0.42578125 3.609375 C-1.04839844 4.31578125 -1.67101563 5.0221875 -2.3125 5.75 C-2.92738281 6.44609375 -3.54226562 7.1421875 -4.17578125 7.859375 C-5.87314734 9.85114506 -7.45477809 11.88898915 -9 14 C-9.66 13.67 -10.32 13.34 -11 13 C-7.61227103 8.30840284 -4.21814817 3.9700218 0 0 Z " fill="#ECEEEB" transform="translate(54,49)"/>
<path d="M0 0 C4.49108752 1.42860919 7.46169316 3.93077292 10.8125 7.125 C11.31458984 7.59292969 11.81667969 8.06085937 12.33398438 8.54296875 C13.56189455 9.68901825 14.78178215 10.84365311 16 12 C15.34 12.66 14.68 13.32 14 14 C13.360625 13.34 12.72125 12.68 12.0625 12 C8.79609901 8.71471808 5.29028428 5.70706564 1.79296875 2.671875 C1.20128906 2.12015625 0.60960937 1.5684375 0 1 C0 0.67 0 0.34 0 0 Z " fill="#2B5756" transform="translate(135,26)"/>
<path d="M0 0 C0.66 0 1.32 0 2 0 C6 6.75 6 6.75 6 9 C4.1875 8.8125 4.1875 8.8125 2 8 C0.1875 5.625 0.1875 5.625 -1 3 C-0.67 2.01 -0.34 1.02 0 0 Z " fill="#0F2020" transform="translate(121,144)"/>
<path d="M0 0 C4.77984973 3.55709747 8.65067332 7.41304402 11 13 C10.67 13.99 10.34 14.98 10 16 C8.51633029 13.89888391 7.03797344 11.79435965 5.5625 9.6875 C5.14162109 9.09259766 4.72074219 8.49769531 4.28710938 7.88476562 C2.46155404 5.27057039 1.01412535 3.04237604 0 0 Z " fill="#162C2C" transform="translate(150,39)"/>
<path d="M0 0 C2.475 0.99 2.475 0.99 5 2 C4.34 3.98 3.68 5.96 3 8 C1.35 7.67 -0.3 7.34 -2 7 C-1.34 4.69 -0.68 2.38 0 0 Z " fill="#345F5E" transform="translate(114,23)"/>
<path d="M0 0 C0.66 0 1.32 0 2 0 C2.33 0.66 2.66 1.32 3 2 C3.66 1.67 4.32 1.34 5 1 C4.67 3.31 4.34 5.62 4 8 C2.35 7.67 0.7 7.34 -1 7 C-0.67 4.69 -0.34 2.38 0 0 Z " fill="#274748" transform="translate(107,21)"/>
<path d="M0 0 C-2.77753377 1.44558008 -5.54539908 2.65035413 -8.5 3.6875 C-9.2528125 3.95949219 -10.005625 4.23148438 -10.78125 4.51171875 C-13.23597493 5.0519311 -14.64423338 4.79774824 -17 4 C-11.15439723 1.36536213 -6.45512034 -0.56131481 0 0 Z " fill="#B8D1D0" transform="translate(70,7)"/>
<path d="M0 0 C0.66 0.33 1.32 0.66 2 1 C-5.29840547 8.48291572 -5.29840547 8.48291572 -9 11 C-9.66 10.67 -10.32 10.34 -11 10 C-10.34 9.01 -9.68 8.02 -9 7 C-8.01 7 -7.02 7 -6 7 C-5.7525 6.401875 -5.505 5.80375 -5.25 5.1875 C-3.83629988 2.71352479 -2.34944617 1.56629745 0 0 Z " fill="#A5C3C3" transform="translate(152,151)"/>
<path d="M0 0 C0.99 0.33 1.98 0.66 3 1 C3.33 3.64 3.66 6.28 4 9 C1 8 1 8 -1 5 C-0.625 2.3125 -0.625 2.3125 0 0 Z " fill="#0E1E1E" transform="translate(61,147)"/>
<path d="M0 0 C0.99 0.33 1.98 0.66 3 1 C2.67 2.32 2.34 3.64 2 5 C1.34 5 0.68 5 0 5 C0 6.65 0 8.3 0 10 C-0.99 10 -1.98 10 -3 10 C-2.49287967 6.28111761 -1.88391785 3.26545761 0 0 Z " fill="#15292B" transform="translate(57,144)"/>
<path d="M0 0 C3.94120709 0.56302958 6.7508723 1.6791945 10 4 C10 4.66 10 5.32 10 6 C9.01 6.33 8.02 6.66 7 7 C6.34 6.67 5.68 6.34 5 6 C5 5.34 5 4.68 5 4 C2.525 3.01 2.525 3.01 0 2 C0 1.34 0 0.68 0 0 Z " fill="#0E201F" transform="translate(131,137)"/>
<path d="M0 0 C0.99 0 1.98 0 3 0 C3 3.3 3 6.6 3 10 C2.01 10 1.02 10 0 10 C0 6.7 0 3.4 0 0 Z " fill="#3B3B3B" transform="translate(68,123)"/>
<path d="M0 0 C0.99 0 1.98 0 3 0 C3 3.3 3 6.6 3 10 C2.01 10 1.02 10 0 10 C0 6.7 0 3.4 0 0 Z " fill="#3C3C3C" transform="translate(94,123)"/>
<path d="M0 0 C1.98 0.99 3.96 1.98 6 3 C5.67 3.99 5.34 4.98 5 6 C3.35 6 1.7 6 0 6 C-0.38218767 4.34385343 -0.71395102 2.67542976 -1 1 C-0.67 0.67 -0.34 0.34 0 0 Z " fill="#457978" transform="translate(26,62)"/>
<path d="M0 0 C1.2065625 0.0309375 1.2065625 0.0309375 2.4375 0.0625 C2.7675 0.7225 3.0975 1.3825 3.4375 2.0625 C1.6875 4.0625 1.6875 4.0625 -0.5625 6.0625 C-1.8825 6.0625 -3.2025 6.0625 -4.5625 6.0625 C-3.48963568 0.08511307 -3.48963568 0.08511307 0 0 Z " fill="#487A7A" transform="translate(122.5625,26.9375)"/>
<path d="M0 0 C0.99 0.33 1.98 0.66 3 1 C3.33 2.98 3.66 4.96 4 7 C2.35 7.33 0.7 7.66 -1 8 C-1.125 2.25 -1.125 2.25 0 0 Z " fill="#3D6D6C" transform="translate(87,19)"/>
<path d="M0 0 C1.8125 0.1875 1.8125 0.1875 4 1 C7 5.17857143 7 5.17857143 7 8 C6.01 8.33 5.02 8.66 4 9 C0 2.25 0 2.25 0 0 Z " fill="#0E201F" transform="translate(115,147)"/>
<path d="M0 0 C0.33 0.66 0.66 1.32 1 2 C1.66 2.33 2.32 2.66 3 3 C2.01 3.495 2.01 3.495 1 4 C1.33 4.99 1.66 5.98 2 7 C0.68 7.99 -0.64 8.98 -2 10 C-3.32 9.34 -4.64 8.68 -6 8 C-5.195625 7.236875 -4.39125 6.47375 -3.5625 5.6875 C-0.83200976 3.20569102 -0.83200976 3.20569102 0 0 Z " fill="#6CA4A2" transform="translate(36,124)"/>
<path d="M0 0 C0.66 0.33 1.32 0.66 2 1 C2 1.66 2 2.32 2 3 C-4.75 7 -4.75 7 -7 7 C-6.875 5.1875 -6.875 5.1875 -6 3 C-3.0625 1.1875 -3.0625 1.1875 0 0 Z " fill="#0E1F1F" transform="translate(30,114)"/>
<path d="M0 0 C3.48670834 1.1094072 6.77484237 2.26337666 10 4 C9.67 2.68 9.34 1.36 9 0 C9.99 0.66 10.98 1.32 12 2 C12 3.32 12 4.64 12 6 C7.39146203 5.27991594 3.32762591 3.68704061 -1 2 C-0.67 1.34 -0.34 0.68 0 0 Z " fill="#4E6869" transform="translate(77,80)"/>
<path d="M0 0 C0.99 0 1.98 0 3 0 C2.67 7.59 2.34 15.18 2 23 C1.01 22.67 0.02 22.34 -1 22 C-0.34 22 0.32 22 1 22 C0.67 14.74 0.34 7.48 0 0 Z " fill="#7FCDCE" transform="translate(88,51)"/>
<path d="M0 0 C6.57692308 2.43589744 6.57692308 2.43589744 8.5 5 C9 7 9 7 8 10 C6.33333333 8.33333333 4.66666667 6.66666667 3 5 C2.401875 4.443125 1.80375 3.88625 1.1875 3.3125 C0 2 0 2 0 0 Z " fill="#9FC0C0" transform="translate(22,147)"/>
<path d="M0 0 C4.42857143 5.14285714 4.42857143 5.14285714 5 9 C1.17053157 7.54744301 -0.12050295 5.57104439 -2 2 C-1.34 1.34 -0.68 0.68 0 0 Z " fill="#0D1D1D" transform="translate(126,141)"/>
<path d="M0 0 C2.64 0.33 5.28 0.66 8 1 C7.25 2.9375 7.25 2.9375 6 5 C3.875 5.75 3.875 5.75 2 6 C1.34 4.02 0.68 2.04 0 0 Z " fill="#36605E" transform="translate(148,65)"/>
<path d="M0 0 C1.94347036 0.9039397 3.87959907 1.823675 5.8125 2.75 C6.89144531 3.26046875 7.97039062 3.7709375 9.08203125 4.296875 C11.9271395 5.95747366 13.2869693 7.23510835 15 10 C10.25 9.25 10.25 9.25 8 7 C5.45350462 4.9628037 2.95798118 3.3733484 0 2 C0 1.34 0 0.68 0 0 Z " fill="#608987" transform="translate(100,54)"/>
<path d="M0 0 C1.74627478 2.61941217 2.38722388 4.03824877 3 7 C1.68 7.33 0.36 7.66 -1 8 C-3 5 -3 5 -3 1 C-2.01 0.67 -1.02 0.34 0 0 Z " fill="#4B7F7F" transform="translate(57,27)"/>
<path d="M0 0 C3.465 1.98 3.465 1.98 7 4 C7 4.66 7 5.32 7 6 C5.02 6.66 3.04 7.32 1 8 C0.17361624 5.10765685 0 3.11257569 0 0 Z " fill="#7ACFCE" transform="translate(59,140)"/>
<path d="M0 0 C3.3 1.65 6.6 3.3 10 5 C10 5.66 10 6.32 10 7 C9.113125 6.690625 8.22625 6.38125 7.3125 6.0625 C4.53290845 5.1709329 1.86863625 4.50622993 -1 4 C-0.67 2.68 -0.34 1.36 0 0 Z " fill="#E1E7E4" transform="translate(77,77)"/>
<path d="M0 0 C1.98 0.99 1.98 0.99 4 2 C4.1953125 8.0546875 4.1953125 8.0546875 4 10 C3.34 10.66 2.68 11.32 2 12 C2 9.36 2 6.72 2 4 C1.34 4 0.68 4 0 4 C0 2.68 0 1.36 0 0 Z " fill="#7EC4C3" transform="translate(116,64)"/>
<path d="M0 0 C0.33 0.99 0.66 1.98 1 3 C-4.28 2.34 -9.56 1.68 -15 1 C-15 0.67 -15 0.34 -15 0 C-9.77254141 -1.2063366 -5.23471686 -0.75612577 0 0 Z " fill="#9BCBCA" transform="translate(112,6)"/>
<path d="M0 0 C0.66 0 1.32 0 2 0 C0.49087042 4.98012761 -2.55661849 8.24259942 -6 12 C-6 8.40941456 -5.10368497 7.25212529 -3.125 4.3125 C-2.59132812 3.50425781 -2.05765625 2.69601563 -1.5078125 1.86328125 C-1.01023438 1.24839844 -0.51265625 0.63351563 0 0 Z " fill="#A2BFBF" transform="translate(161,139)"/>
<path d="M0 0 C0.99 0.495 0.99 0.495 2 1 C1.67 1.66 1.34 2.32 1 3 C4.465 2.505 4.465 2.505 8 2 C7.34 3.65 6.68 5.3 6 7 C4.02 6.01 2.04 5.02 0 4 C0 2.68 0 1.36 0 0 Z " fill="#67AAAA" transform="translate(26,58)"/>
<path d="M0 0 C0.66 0 1.32 0 2 0 C2.33 1.65 2.66 3.3 3 5 C0 7 0 7 -3 7 C-2.25 2.25 -2.25 2.25 0 0 Z " fill="#11201E" transform="translate(151,58)"/>
<path d="M0 0 C1.65 0 3.3 0 5 0 C4.67 2.31 4.34 4.62 4 7 C3.01 7 2.02 7 1 7 C0.67 4.69 0.34 2.38 0 0 Z " fill="#315A59" transform="translate(94,19)"/>
<path d="M0 0 C3.4117126 0.37083833 6.68901795 1.10858176 10 2 C9.67 2.99 9.34 3.98 9 5 C5.37 4.01 1.74 3.02 -2 2 C-1.34 1.34 -0.68 0.68 0 0 Z " fill="#70B2AF" transform="translate(146,121)"/>
<path d="M0 0 C0 0.66 0 1.32 0 2 C-3.25 3.625 -3.25 3.625 -7 5 C-9.4375 4.1875 -9.4375 4.1875 -11 3 C-7.4536218 1.02978989 -4.07768576 0 0 0 Z " fill="#649593" transform="translate(116,67)"/>
<path d="M0 0 C1.32 0.33 2.64 0.66 4 1 C3.67 2.65 3.34 4.3 3 6 C1.02 6 -0.96 6 -3 6 C-2.67 5.01 -2.34 4.02 -2 3 C-0.515 3.99 -0.515 3.99 1 5 C0.67 3.35 0.34 1.7 0 0 Z " fill="#1B3736" transform="translate(92,156)"/>
<path d="M0 0 C0.99 0 1.98 0 3 0 C3.33 2.97 3.66 5.94 4 9 C3.01 9 2.02 9 1 9 C0.67 6.03 0.34 3.06 0 0 Z " fill="#2C2C2C" transform="translate(82,123)"/>
<path d="M0 0 C1.98 0 3.96 0 6 0 C5.1875 2.4375 5.1875 2.4375 4 5 C3.01 5.33 2.02 5.66 1 6 C0.67 4.02 0.34 2.04 0 0 Z " fill="#203A3A" transform="translate(153,81)"/>
<path d="M0 0 C2.64752004 2.57784846 4.94432065 4.91648098 7 8 C6.34 8 5.68 8 5 8 C4.67 8.66 4.34 9.32 4 10 C0 3.375 0 3.375 0 0 Z " fill="#6DAAA9" transform="translate(123,143)"/>
<path d="M0 0 C2.64 0.99 5.28 1.98 8 3 C7.67 4.32 7.34 5.64 7 7 C4.03 5.35 1.06 3.7 -2 2 C-1.34 1.34 -0.68 0.68 0 0 Z " fill="#6FAEAF" transform="translate(134,135)"/>
<path d="M0 0 C2.97 0.495 2.97 0.495 6 1 C5.67 2.32 5.34 3.64 5 5 C3.02 5.33 1.04 5.66 -1 6 C-1 5.34 -1 4.68 -1 4 C-0.01 4 0.98 4 2 4 C2 3.34 2 2.68 2 2 C1.34 2 0.68 2 0 2 C0 1.34 0 0.68 0 0 Z " fill="#16302D" transform="translate(22,75)"/>
<path d="M0 0 C0.99 0 1.98 0 3 0 C3 1.32 3 2.64 3 4 C3.66 4 4.32 4 5 4 C5 4.66 5 5.32 5 6 C2.03 5.505 2.03 5.505 -1 5 C-0.67 3.35 -0.34 1.7 0 0 Z " fill="#223E3E" transform="translate(24,69)"/>
<path d="M0 0 C1.9375 0.8125 1.9375 0.8125 4 2 C4.33 2.99 4.66 3.98 5 5 C4.34 5 3.68 5 3 5 C3 5.66 3 6.32 3 7 C2.34 7 1.68 7 1 7 C0.67 4.69 0.34 2.38 0 0 Z " fill="#2D5251" transform="translate(47,34)"/>
<path d="M0 0 C2.64850992 2.64850992 4.33103223 5.66206447 6 9 C5.01 9.33 4.02 9.66 3 10 C1.35 7.03 -0.3 4.06 -2 1 C-1.34 0.67 -0.68 0.34 0 0 Z " fill="#5D8F8C" transform="translate(119,145)"/>
<path d="M0 0 C0.99 0 1.98 0 3 0 C3.99 2.31 4.98 4.62 6 7 C5.01 7 4.02 7 3 7 C0.64276511 4.46815512 0 3.52809907 0 0 Z " fill="#ADCCCC" transform="translate(17,140)"/>
<path d="M0 0 C2 1.125 2 1.125 4 3 C4.25 6.1875 4.25 6.1875 4 9 C3.01 9.495 3.01 9.495 2 10 C1.67 9.01 1.34 8.02 1 7 C1.33 6.34 1.66 5.68 2 5 C1.34 4.67 0.68 4.34 0 4 C0.33 3.34 0.66 2.68 1 2 C0.34 1.67 -0.32 1.34 -1 1 C-0.67 0.67 -0.34 0.34 0 0 Z " fill="#1F3B38" transform="translate(46,136)"/>
<path d="M0 0 C0.99 0 1.98 0 3 0 C4.85776765 3.13498292 5.20140476 5.37471432 5 9 C1.9083091 6.47043472 1.09068668 3.77545388 0 0 Z " fill="#1F1F1F" transform="translate(87,123)"/>
<path d="M0 0 C0.33 0.99 0.66 1.98 1 3 C-3.95 5.475 -3.95 5.475 -9 8 C-9.33 7.34 -9.66 6.68 -10 6 C-8.906875 5.566875 -7.81375 5.13375 -6.6875 4.6875 C-3.90591207 3.50504359 -1.93638061 2.39199957 0 0 Z " fill="#7FC6C7" transform="translate(118,101)"/>
<path d="M0 0 C2.26171875 0.14453125 2.26171875 0.14453125 4.6875 0.8125 C5.49574219 1.02519531 6.30398437 1.23789063 7.13671875 1.45703125 C8.05904297 1.72580078 8.05904297 1.72580078 9 2 C9 2.33 9 2.66 9 3 C5.04 3 1.08 3 -3 3 C-2.01 2.01 -1.02 1.02 0 0 Z " fill="#ADE0E0" transform="translate(75,4)"/>
<path d="M0 0 C1.32 0 2.64 0 4 0 C3.67 1.65 3.34 3.3 3 5 C2.01 5 1.02 5 0 5 C-0.33 5.66 -0.66 6.32 -1 7 C-0.67 4.69 -0.34 2.38 0 0 Z " fill="#71B7B7" transform="translate(71,152)"/>
<path d="M0 0 C4.42857143 5.14285714 4.42857143 5.14285714 5 9 C4.34 9 3.68 9 3 9 C-0.22265625 3.7265625 -0.22265625 3.7265625 -1 2 C-0.67 1.34 -0.34 0.68 0 0 Z " fill="#74B9B4" transform="translate(114,147)"/>
<path d="M0 0 C2 3 2 3 3 6 C2.34 6 1.68 6 1 6 C0.67 6.99 0.34 7.98 0 9 C-0.99 7.35 -1.98 5.7 -3 4 C-2.34 4 -1.68 4 -1 4 C-0.67 2.68 -0.34 1.36 0 0 Z " fill="#78C6C8" transform="translate(131,139)"/>
<path d="M0 0 C0.99 0 1.98 0 3 0 C2.34 1.98 1.68 3.96 1 6 C0.01 6 -0.98 6 -2 6 C-1.125 1.125 -1.125 1.125 0 0 Z " fill="#0C1C1B" transform="translate(40,135)"/>
<path d="M0 0 C2.475 0.99 2.475 0.99 5 2 C5 2.66 5 3.32 5 4 C2.69 4.33 0.38 4.66 -2 5 C-1.34 3.35 -0.68 1.7 0 0 Z " fill="#142827" transform="translate(29,56)"/>
<path d="M0 0 C-1.49097658 3.7952131 -3.75700849 5.61042731 -7 8 C-6.44414399 4.1090079 -4.34122117 0 0 0 Z " fill="#C2D9D9" transform="translate(36,22)"/>
<path d="M0 0 C2.875 0.6875 2.875 0.6875 6 2 C7.375 4.625 7.375 4.625 8 7 C6.66382648 6.02471263 5.3311249 5.04466681 4 4.0625 C3.2575 3.51722656 2.515 2.97195312 1.75 2.41015625 C1.1725 1.94480469 0.595 1.47945312 0 1 C0 0.67 0 0.34 0 0 Z " fill="#A4BEBD" transform="translate(31,157)"/>
<path d="M0 0 C0.66 0 1.32 0 2 0 C2.33 2.97 2.66 5.94 3 9 C2.34 9 1.68 9 1 9 C0.67 6.03 0.34 3.06 0 0 Z " fill="#1E1E1E" transform="translate(116,123)"/>
<path d="M0 0 C1.875 0.25 1.875 0.25 4 1 C5.25 3.0625 5.25 3.0625 6 5 C4.35 4.67 2.7 4.34 1 4 C0.67 2.68 0.34 1.36 0 0 Z " fill="#4F8482" transform="translate(58,152)"/>
<path d="M0 0 C1.85776765 3.13498292 2.20140476 5.37471432 2 9 C0.02 9 -1.96 9 -4 9 C-3.01 8.34 -2.02 7.68 -1 7 C-0.26393501 3.43230448 -0.26393501 3.43230448 0 0 Z " fill="#9C9C9C" transform="translate(87,124)"/>
<path d="M0 0 C2.52259061 1.97420135 2.9929808 2.96745642 3.6875 6.1875 C3.790625 7.115625 3.89375 8.04375 4 9 C3.34 9 2.68 9 2 9 C0.93347808 6.69631264 -0.06421005 4.35981813 -1 2 C-0.67 1.34 -0.34 0.68 0 0 Z " fill="#A7D8D7" transform="translate(5,112)"/>
<path d="M0 0 C1.85776765 3.13498292 2.20140476 5.37471432 2 9 C1.34 9 0.68 9 0 9 C-1.125 2.25 -1.125 2.25 0 0 Z " fill="#213B3B" transform="translate(168,72)"/>
<path d="M0 0 C1.32 0 2.64 0 4 0 C4 0.66 4 1.32 4 2 C5.65 2.33 7.3 2.66 9 3 C9 3.66 9 4.32 9 5 C5.22454612 3.90931332 2.52956528 3.0916909 0 0 Z " fill="#DCE0DE" transform="translate(109,58)"/>
<path d="M0 0 C-1.39332574 3.36720387 -2.9789286 4.9859524 -6 7 C-6 4 -6 4 -4.125 1.8125 C-2 0 -2 0 0 0 Z " fill="#364443" transform="translate(55,47)"/>
<path d="M0 0 C0.33 0 0.66 0 1 0 C1 2.64 1 5.28 1 8 C0.67 7.01 0.34 6.02 0 5 C-2.00016466 3.79117904 -2.00016466 3.79117904 -4 3 C-3.67 2.34 -3.34 1.68 -3 1 C-2.34 1.33 -1.68 1.66 -1 2 C-0.67 1.34 -0.34 0.68 0 0 Z " fill="#73B2AF" transform="translate(96,152)"/>
<path d="M0 0 C2.475 0.495 2.475 0.495 5 1 C5.33 1.99 5.66 2.98 6 4 C4.35 3.67 2.7 3.34 1 3 C0.67 2.01 0.34 1.02 0 0 Z " fill="#0F1E1E" transform="translate(139,135)"/>
<path d="M0 0 C2.4375 0.75 2.4375 0.75 5 2 C5.8125 4.125 5.8125 4.125 6 6 C3.37812506 4.95125002 2.20628639 4.35068687 0.75 1.875 C0.5025 1.25625 0.255 0.6375 0 0 Z " fill="#467673" transform="translate(145,126)"/>
<path d="M0 0 C0.66 0 1.32 0 2 0 C2 1.32 2 2.64 2 4 C0.02 4.33 -1.96 4.66 -4 5 C-4 4.34 -4 3.68 -4 3 C-3.01 2.67 -2.02 2.34 -1 2 C-0.67 1.34 -0.34 0.68 0 0 Z " fill="#234442" transform="translate(155,70)"/>
<path d="M0 0 C0.66 0 1.32 0 2 0 C2.26218749 3.14624993 2.24754367 4.61837017 0.5 7.3125 C-0.2425 8.1478125 -0.2425 8.1478125 -1 9 C-0.67 6.03 -0.34 3.06 0 0 Z " fill="#92D8D7" transform="translate(9,57)"/>
<path d="M0 0 C3.24208567 0.35049575 4.61527704 0.56221181 6.8125 3.0625 C7.204375 3.701875 7.59625 4.34125 8 5 C5 5 5 5 2.3125 2.5 C1.549375 1.675 0.78625 0.85 0 0 Z " fill="#273635" transform="translate(124,48)"/>
<path d="M0 0 C2.97 0.495 2.97 0.495 6 1 C4.68 2.32 3.36 3.64 2 5 C1.01 4.67 0.02 4.34 -1 4 C-0.67 2.68 -0.34 1.36 0 0 Z " fill="#75CCCA" transform="translate(127,32)"/>
</svg>
